<?xml version="1.0" encoding="UTF-8" standalone="no"?>
<svg
   width="48"
   height="48"
   viewBox="0 0 29.538462 29.538462"
   version="1.1"
   id="svg3"
   sodipodi:docname="BeachesONDay1.svg"
   inkscape:version="1.4 (86a8ad7, 2024-10-11)"
   xml:space="preserve"
   xmlns:inkscape="http://www.inkscape.org/namespaces/inkscape"
   xmlns:sodipodi="http://sodipodi.sourceforge.net/DTD/sodipodi-0.dtd"
   xmlns:xlink="http://www.w3.org/1999/xlink"
   xmlns="http://www.w3.org/2000/svg"
   xmlns:svg="http://www.w3.org/2000/svg"><defs
     id="defs3"><clipPath
       clipPathUnits="userSpaceOnUse"
       id="clipPath8"><path
         id="path8"
         style="fill:#ff0000;fill-opacity:1;fill-rule:nonzero;stroke:none;stroke-width:0.615385"
         d="m -392.61538,-388.92308 v 800 h 800 v -800 z m 195.13341,379.6622628 c 0.98766,0.019477 1.94608,0.085448 2.86298,0.2055286 3.53409,0.4628388 4.26553,1.1354868 7.07092,2.6610578 2.33021,1.693337 3.2503,2.1851155 5.23798,4.4134616 3.82824,4.2917917 5.85447,9.7432418 7.59495,15.1274032 3.42148,12.587248 4.77105,25.524674 5.85697,38.500001 1.58846,17.263107 3.45183,34.531568 3.39423,51.893025 -0.10772,2.9333 -0.13224,5.87022 -0.32332,8.79928 -0.87662,13.43734 -3.7338,26.65395 -6.01202,39.89303 -1.60656,8.28125 -3.10621,16.60818 -5.30649,24.75962 -1.16861,4.32936 -2.24959,8.19173 -4.4375,12.11778 -0.78462,1.40792 -1.86464,2.62987 -2.79687,3.94472 -1.07258,1.00245 -2.04043,2.12988 -3.21755,3.00721 -5.15748,3.84397 -11.60825,4.13594 -17.77885,4.30528 -11.66545,0.38767 -23.33312,0.14038 -35.0024,0.0469 -14.98376,-0.16309 -29.96832,-0.36876 -44.94592,-0.84976 -9.77382,-0.2893 -19.55055,-0.38635 -29.32091,-0.76563 -7.8651,-0.43912 -15.76872,-0.99161 -23.44832,-2.85817 -7.9351,-2.38047 -15.26281,-5.90383 -19.59615,-13.35937 -0.64108,-1.33185 -1.38753,-2.61752 -1.92308,-3.9952 -3.51363,-9.03865 -2.91477,-19.14491 -3.47235,-28.62379 -0.0907,-15.21027 0.13161,-30.42462 0.70072,-45.62501 0.62718,-13.464082 1.49382,-26.912427 2.37741,-40.361775 0.45369,-10.81738 0.67076,-21.637776 0.55288,-32.465141 V 16.536058 c 0,-12.9855077 13.11659,-12.9855077 13.11659,0 v 14.973557 c 0.11973,11.010066 -0.10512,22.013246 -0.56371,33.013222 -0.87754,13.470492 -1.75226,26.939434 -2.3798,40.424273 -0.55556,14.97069 -0.7787,29.95479 -0.6863,44.9351 0.64995,8.81774 -0.50578,18.74931 3.97716,26.76683 2.67044,3.93222 7.18333,5.47434 11.56731,6.69831 6.73092,1.52162 13.63501,1.9742 20.50601,2.35457 9.65727,0.36422 19.32035,0.4653 28.98077,0.75121 14.89582,0.47857 29.79874,0.68161 44.70072,0.84374 11.4756,0.0847 22.95009,0.34435 34.42187,-0.0409 3.26461,-0.40843 7.23298,0.30245 10.25,-1.43149 0.55695,-0.32008 1.60408,-1.68093 1.91346,-2.05048 0.39188,-0.65811 0.85297,-1.28003 1.17548,-1.97475 1.18826,-2.55966 2.05604,-5.86025 2.73919,-8.49039 2.02161,-7.78328 3.48985,-15.68348 5.01923,-23.57332 2.18847,-12.8293 5.00597,-25.63127 5.83293,-38.65264 0.16926,-2.66519 0.18003,-5.33818 0.27043,-8.00721 0.003,-16.804259 -1.80968,-33.516905 -3.34735,-50.227166 -1.09715,-12.188746 -2.15471,-24.40448 -5.44351,-36.227164 -1.67723,-5.172328 -3.07268,-9.2588671 -7.71514,-12.27524 -0.42486,-0.1998396 -0.81992,-0.485211 -1.27525,-0.5997596 -1.35526,-0.3409576 -7.19627,0.6820402 -7.83173,0.7776442 -2.97793,0.4480323 -9.82439,1.7484034 -12.54567,2.2536059 -17.52083,3.6873855 -35.08478,6.9811475 -52.82572,9.4122595 -14.40364,1.895548 -28.86401,3.3694 -43.39784,3.46875 -7.54745,0.009 -15.08078,-0.512229 -22.59615,-1.152645 -12.93862,-1.10255 -11.81871,-14.1829455 1.11899,-13.0697108 7.11663,0.6123559 14.25054,1.1058373 21.39783,1.1045672 13.96517,-0.071367 27.85767,-1.5492708 41.69832,-3.3461537 17.53655,-2.39774188 34.89206,-5.6759411 52.21154,-9.3137019 6.33609,-1.1750423 14.72943,-3.2781776 21.64303,-3.1418269 z" /></clipPath><linearGradient
       inkscape:collect="always"
       xlink:href="#linearGradient33"
       id="linearGradient26"
       gradientUnits="userSpaceOnUse"
       gradientTransform="matrix(-0.22896812,-0.05982709,-0.05919312,0.57183397,18.243147,13.624878)"
       x1="11.222051"
       y1="22.222317"
       x2="11.222051"
       y2="15.414383" /><linearGradient
       id="linearGradient33"
       inkscape:collect="always"><stop
         style="stop-color:#ffffff;stop-opacity:0.30588236;"
         offset="0.3562341"
         id="stop32" /><stop
         style="stop-color:#ffffff;stop-opacity:0;"
         offset="1"
         id="stop33" /></linearGradient><linearGradient
       inkscape:collect="always"
       xlink:href="#linearGradient24"
       id="linearGradient25"
       gradientUnits="userSpaceOnUse"
       gradientTransform="matrix(-0.45928272,0.01427455,0.05463316,0.59822554,20.184566,11.926156)"
       x1="11.222051"
       y1="22.222317"
       x2="11.222051"
       y2="15.414383" /><linearGradient
       id="linearGradient24"
       inkscape:collect="always"><stop
         style="stop-color:#ffffff;stop-opacity:0.30588236;"
         offset="0.3562341"
         id="stop23" /><stop
         style="stop-color:#a9d4e8;stop-opacity:0;"
         offset="1"
         id="stop24" /></linearGradient><linearGradient
       inkscape:collect="always"
       xlink:href="#linearGradient24"
       id="linearGradient19"
       gradientUnits="userSpaceOnUse"
       gradientTransform="matrix(0.45953954,0.01719004,-0.0590579,0.59364452,8.7706732,11.776153)"
       x1="11.222051"
       y1="22.222317"
       x2="11.222051"
       y2="15.414383" /><linearGradient
       inkscape:collect="always"
       xlink:href="#linearGradient27"
       id="linearGradient28"
       x1="10.803197"
       y1="18.576849"
       x2="10.803197"
       y2="8.5880651"
       gradientUnits="userSpaceOnUse"
       gradientTransform="matrix(0.66151625,0,0,0.48382636,4.3923987,15.071558)" /><linearGradient
       id="linearGradient27"
       inkscape:collect="always"><stop
         style="stop-color:#000000;stop-opacity:0.35294119;"
         offset="0"
         id="stop27" /><stop
         style="stop-color:#000000;stop-opacity:0;"
         offset="0.71246821"
         id="stop28" /></linearGradient><linearGradient
       inkscape:collect="always"
       xlink:href="#linearGradient30"
       id="linearGradient31"
       x1="18.947456"
       y1="9.5438919"
       x2="18.947456"
       y2="18.232359"
       gradientUnits="userSpaceOnUse"
       gradientTransform="matrix(0.7755905,0,0,0.48264447,2.0279424,15.169786)" /><linearGradient
       id="linearGradient30"
       inkscape:collect="always"><stop
         style="stop-color:#000000;stop-opacity:0;"
         offset="0.26972008"
         id="stop31" /><stop
         style="stop-color:#000000;stop-opacity:0.3277311;"
         offset="1"
         id="stop30" /></linearGradient></defs><sodipodi:namedview
     id="namedview3"
     pagecolor="#ffffff"
     bordercolor="#111111"
     borderopacity="1"
     inkscape:showpageshadow="0"
     inkscape:pageopacity="0"
     inkscape:pagecheckerboard="1"
     inkscape:deskcolor="#d1d1d1"
     inkscape:zoom="32"
     inkscape:cx="22.09375"
     inkscape:cy="19.40625"
     inkscape:window-width="1920"
     inkscape:window-height="1056"
     inkscape:window-x="-8"
     inkscape:window-y="-8"
     inkscape:window-maximized="1"
     inkscape:current-layer="svg3"
     showgrid="false"
     showguides="true" /><ellipse
     style="display:inline;fill:#27543d;fill-opacity:1;stroke:#333333;stroke-width:0.944613;stroke-dasharray:none;stroke-opacity:1;opacity:1"
     id="path1-7"
     cx="14.769232"
     cy="14.769231"
     rx="14.296926"
     ry="14.296925" /><path
     id="path39-2"
     style="display:none;fill:none;fill-opacity:0.308917;stroke:#8f5c13;stroke-width:0.049648;stroke-dasharray:none;stroke-opacity:1"
     d="m 20.135746,27.488571 c -0.630092,-1.73209 -3.011443,0.04491 -0.531617,-4.574543 0.568467,-1.058948 -0.888259,-2.436096 -2.829635,-4.017697 -0.41081,-0.334679 -0.421823,-0.986465 -0.645806,-1.500759 -0.573465,-1.316748 -0.105796,-4.317956 -1.540912,-4.738768 m 0.017,-0.0095 c -0.773209,1.27667 -0.560009,3.056243 -1.093836,4.124864 -0.45325,0.907322 -1.277461,0.982241 -1.730842,1.947936 -0.201369,0.428918 -0.04316,1.716577 -0.236539,2.16312 0.503075,3.067241 -1.7531016,4.027502 -2.6958189,6.467912 0,0 5.4407169,2.889245 11.2772549,0.14886" /><path
     d="m 8.5761619,26.89859 c 0.013037,-0.01504 0.027018,-0.03374 0.039696,-0.04793 0.083321,-0.09327 0.2606958,-0.268237 0.4192848,-0.427079 0.7290874,-0.78753 1.4389143,-1.670253 1.7949843,-2.421927 0.0048,-1.377087 -0.214038,-1.985256 0.378348,-3.167133 l 1.726759,-1.04046 c 0.04594,-0.06749 0.08819,-0.143882 0.12653,-0.225524 l 0.347337,-1.668009 0.721763,-1.602598 -13.28296725,1.189319 c 0.55086415,6.090791 5.27491165,8.561843 7.29781565,9.847131 0,0 0.2857703,-0.288502 0.430449,-0.435792 z"
     style="opacity:1;fill:#f7ceb7;fill-opacity:0.89622641;stroke:#7c502b;stroke-width:0.297609;stroke-opacity:1"
     id="path4"
     sodipodi:nodetypes="sccccccccccss" /><path
     d="m 14.710794,16.297935 c 0.08343,0.252661 0.118658,0.08133 0.24606,0.618204 0.01126,0.111695 -0.09818,0.248078 0.03979,0.401242 l 0.470667,0.369646 0.04039,0.29997 c 0.06545,0.243767 0.08604,0.56053 0.151801,0.980544 0.07218,0.461027 0.12679,0.729124 0.189747,0.934311 l 0.588827,1.295568 c 0.0155,0.02203 0.03086,0.04387 0.04651,0.06128 0.08439,0.09375 0.184266,0.158212 0.858146,0.558007 0.716036,0.424803 1.256795,0.789544 1.65141,1.111714 l 0.219129,0.141919 0.08448,0.125796 c 0.27443,0.265506 0.4345,0.499406 0.478652,0.707455 l 0.04285,0.06343 -0.03061,0.05267 c 3.46e-4,0.02796 2.39e-4,0.0557 -0.0037,0.08279 -0.01361,0.09446 -0.08242,0.206963 -0.38684,0.636494 -0.06497,0.09166 -0.108363,0.160031 -0.165264,0.242985 l -0.642691,1.11494 c -0.0485,0.133514 -0.0748,0.249657 -0.07712,0.353727 l 0.189746,0.417161 c 0.107565,0.07867 0.267278,0.149445 0.506808,0.232233 0.341461,0.118021 0.546673,0.214456 0.701452,0.327925 l 0.248507,0.09461 c 0,0 6.038591,-0.734252 8.397521,-8.546148 0.189277,-0.626814 0.568004,-1.459718 0.03749,-1.489282 C 17.245629,16.854728 14.710798,16.297927 14.710798,16.297927 Z"
     style="display:inline;opacity:1;fill:#f7ceb7;fill-opacity:0.89622641;stroke:#7c502b;stroke-width:0.293696;stroke-opacity:1"
     id="path6"
     sodipodi:nodetypes="cccccccccscccccccsccccsccscc" /><path
     d="m 19.742445,27.448593 -1.167298,-0.442331 -0.05706,-0.125291 c -0.144563,-0.105722 -0.19377,-0.224964 -0.193515,-0.40529 7e-6,-0.0056 0.0011,-0.01184 0.0012,-0.01743 l -0.05706,-0.125292 0.135213,-0.233149 c 0.09836,-0.270718 0.312183,-0.635471 0.651256,-1.129795 l 0.563183,-0.975091 c -4.75e-4,-0.0384 -0.0039,-0.07753 -0.0124,-0.117665 l -0.485011,-0.716876 c -0.08934,-0.08643 -0.192916,-0.177619 -0.307641,-0.271282 L 16.27527,21.248334 16.22318,21.135027 c -0.06773,-0.09627 -0.140263,-0.247567 -0.277871,-0.573068 -0.05441,-0.128716 -0.145402,-0.324826 -0.2022,-0.436885 -0.04498,-0.08878 -0.08181,-0.189442 -0.116603,-0.302877 l -0.117831,-0.258206 -0.228248,-1.682165 v -0.0012 c -0.06654,-0.247149 -0.178997,-0.420588 -0.430449,-0.553459 -0.05657,-0.02991 -0.09303,-0.06092 -0.121568,-0.0926 l -0.140176,-0.09478 0.115366,-0.33665 -0.194758,-0.598129 c -0.207523,-0.26149 -0.333349,0.534089 -0.35974,0.636259 -0.09189,0.355732 -0.418228,0.796 -0.545815,1.391275 -0.134599,0.62799 -0.235819,1.022086 -0.373385,1.315008 l -0.03598,0.171047 -0.09055,0.05447 c -0.188107,0.276323 -0.450212,0.458751 -0.903075,0.719061 -0.631592,0.363044 -0.912781,0.618507 -0.997351,0.904273 -0.02345,0.07926 -0.05437,0.371996 -0.0707,0.672211 -0.01807,0.332584 -0.04459,0.582554 -0.07194,0.665676 -0.03634,0.110383 -0.03857,0.163241 -0.01116,0.308324 0.0204,0.108118 0.02697,0.31843 0.01736,0.551281 -0.02223,0.53544 -0.135046,0.85393 -0.470145,1.326993 -0.243179,0.3433 -0.423468,0.536741 -1.1834242,1.268161 -0.07365,0.07087 -0.1303477,0.134119 -0.2096423,0.213539 -0.1550456,0.167474 -0.3052859,0.318545 -0.4589801,0.475017 -0.2578393,0.297501 -0.5747082,0.742778 -0.5396121,0.764818 0.013888,0.0087 0.1941754,0.06719 0.4006774,0.129649 1.6448703,0.497471 3.3664273,0.774376 5.1988813,0.835636 1.171423,0.03915 2.574573,-0.05069 3.79341,-0.242956 0.79534,-0.125455 1.374854,-0.257628 2.137359,-0.487 l 0.318807,-0.09588 -0.05954,-0.08388 c -0.07077,-0.09877 -0.153225,-0.177207 -0.251829,-0.249492 z"
     style="display:inline;fill:#6f9eb2;fill-opacity:1;stroke:#333333;stroke-width:0.223802"
     id="path5" /><g
     id="g18"
     transform="matrix(2.2788384,-0.18719148,0.19564178,2.3817109,-30.056513,-26.796666)"
     style="stroke:#333333;stroke-opacity:1"><path
       d="m 19.584135,20.603366 -0.377404,-0.301683 -0.373798,0.299279 a 0.51239616,0.48518723 0 0 0 0.376202,0.157452 0.51239616,0.48518723 0 0 0 0.375,-0.155048 z"
       style="opacity:1;fill:#ffffff;fill-opacity:1;stroke:#333333;stroke-width:0.0615385;stroke-dasharray:none;stroke-opacity:1"
       id="path10" /><path
       d="m 19.614183,19.975962 -0.407452,0.325721 0.377404,0.301683 a 0.51239616,0.48518723 0 0 0 0.137019,-0.329327 0.51239616,0.48518723 0 0 0 -0.106971,-0.298077 z"
       style="opacity:1;fill:#cd5151;fill-opacity:1;stroke:#333333;stroke-width:0.0615385;stroke-dasharray:none;stroke-opacity:1"
       id="path9" /><path
       d="m 19.209135,19.788462 a 0.51239616,0.48518723 0 0 0 -0.405048,0.189904 l 0.402644,0.323317 0.407452,-0.325721 a 0.51239616,0.48518723 0 0 0 -0.405048,-0.1875 z"
       style="opacity:1;fill:#ffffff;fill-opacity:1;stroke:#333333;stroke-width:0.0615385;stroke-dasharray:none;stroke-opacity:1"
       id="path7" /><path
       d="m 18.832933,20.600962 0.373798,-0.299279 -0.402644,-0.323317 a 0.51239616,0.48518723 0 0 0 -0.106971,0.295673 0.51239616,0.48518723 0 0 0 0.135817,0.326923 z"
       style="opacity:1;fill:#cd5151;fill-opacity:1;stroke:#333333;stroke-width:0.0615385;stroke-dasharray:none;stroke-opacity:1"
       id="path3" /></g><g
     id="g19"
     transform="matrix(2.4831126,0,0,2.4754916,-31.304844,-30.834461)"
     style="stroke:#333333;stroke-opacity:1"><path
       d="m 22.788462,18.259616 -0.168269,0.334134 1.453125,0.185096 0.186298,-0.336538 z"
       style="display:inline;opacity:1;fill:#ffffff;fill-opacity:1;stroke:#333333;stroke-width:0.123077;stroke-opacity:1"
       id="path31" /><path
       d="M 24.073318,18.778846 22.620193,18.59375 22.509616,18.8125 c 0.449807,0.09007 1.20889,0.211499 1.407452,0.247596 z"
       style="display:inline;opacity:1;fill:#cd5151;fill-opacity:1;stroke:#333333;stroke-width:0.123077;stroke-opacity:1"
       id="path30" /><path
       d="m 23.44351,19.915866 -1.282452,-0.408654 -0.122596,0.24399 1.239183,0.463943 z"
       style="display:inline;opacity:1;fill:#cd5151;fill-opacity:1;stroke:#333333;stroke-width:0.123077;stroke-opacity:1"
       id="path29" /><path
       d="m 23.917068,19.060096 c -0.198562,-0.0361 -0.957645,-0.157522 -1.407452,-0.247596 l -0.348558,0.694712 1.282452,0.408654 z"
       style="display:inline;opacity:1;fill:#ffffff;fill-opacity:1;stroke:#333333;stroke-width:0.123077;stroke-opacity:1"
       id="path28" /><path
       d="m 23.277645,20.215145 -1.239183,-0.463943 -0.0096,0.01803 -0.776442,0.171875 1.207933,0.548077 0.760817,-0.200721 0.0012,0.02644 z"
       style="display:inline;opacity:1;fill:#ffffff;fill-opacity:1;stroke:#333333;stroke-width:0.123077;stroke-opacity:1"
       id="path27" /><path
       d="m 22.460337,20.489183 -1.207933,-0.548077 -0.477163,0.105769 1.191105,0.573318 z"
       style="display:inline;opacity:1;fill:#cd5151;fill-opacity:1;stroke:#333333;stroke-width:0.123077;stroke-opacity:1"
       id="path26" /><path
       d="m 21.966346,20.620193 -1.191105,-0.573318 -0.871395,0.19351 1.317308,0.576923 z"
       style="display:inline;opacity:1;fill:#ffffff;fill-opacity:1;stroke:#333333;stroke-width:0.123077;stroke-opacity:1"
       id="path25" /><path
       style="opacity:1;fill:#ff6072;fill-opacity:1;stroke:#333333;stroke-width:0.184615;stroke-dasharray:none;stroke-opacity:1"
       d="m 19.828087,20.203817 0.04808,0.85577"
       id="path33" /><path
       style="opacity:1;fill:#ff6072;fill-opacity:1;stroke:#333333;stroke-width:0.184615;stroke-dasharray:none;stroke-opacity:1"
       d="m 21.221154,20.798078 0.05769,0.826923"
       id="path34" /><path
       style="fill:#ff6072;fill-opacity:1;stroke:#333333;stroke-width:0.184615;stroke-dasharray:none;stroke-opacity:1"
       d="m 23.221892,20.256424 0.05769,0.826923"
       id="path34-9" /></g><g
     id="g17"
     style="display:inline;stroke:#333333;stroke-opacity:1"
     transform="matrix(2.9610199,0,0,3.3995341,-39.538016,-49.838094)"><path
       style="opacity:1;fill:#00f593;fill-opacity:1;stroke:#333333;stroke-width:0.184615;stroke-dasharray:none;stroke-opacity:1"
       d="m 20.140846,19.956574 -0.0041,-1.747165"
       id="path57"
       sodipodi:nodetypes="cc" /><path
       d="m 20.188702,17.019231 0.963604,1.439566 c 0.08764,-0.0455 0.281083,-0.04397 0.352603,-0.113377 0.06577,-0.06383 -0.04387,-0.225429 0.02938,-0.237767 0.06991,-0.01178 0.233031,0.105678 0.309337,0.131725 0.108669,0.0371 0.180835,0.0013 0.280175,0.001 -0.355638,-0.522939 -0.73473,-1.048477 -1.935096,-1.221154 z"
       style="opacity:1;fill:#cd5151;fill-opacity:1;stroke:#333333;stroke-width:0.123077;stroke-opacity:1"
       id="path16"
       sodipodi:nodetypes="ccsssccc" /><path
       d="m 20.188702,17.019231 c -0.01641,-0.0024 -0.03256,-0.005 -0.04928,-0.0072 -0.03026,0.0046 -0.05931,0.01053 -0.08894,0.01563 -0.113102,0.179067 -0.802624,1.271882 -0.91226,1.471154 0.0044,0.004 0.0063,-0.01815 0.01048,-0.01403 0.193864,-0.07599 0.443,0.08209 0.606747,0.04484 0.166918,-0.03797 0.23167,-0.298383 0.395995,-0.314464 0.24573,0.0118 0.251847,0.24685 0.394354,0.28887 0.167823,0.04948 0.445323,-0.09709 0.578714,-0.03731 0.0056,-0.0045 0.02492,-8.45e-4 0.03054,-0.0052 z"
       style="fill:#ffffff;fill-opacity:1;stroke:#333333;stroke-width:0.123077;stroke-dasharray:none;stroke-opacity:1"
       id="path15"
       sodipodi:nodetypes="cccccscsccc" /><path
       d="m 20.050481,17.027644 c -0.937247,0.161081 -1.561533,0.567591 -1.902644,1.260818 0.113374,-0.0044 0.206041,-0.04205 0.313064,-0.06704 0.06931,-0.01619 0.161268,-0.04343 0.220873,-0.02592 0.07496,0.02204 0.02916,0.15986 0.08898,0.197302 0.119518,0.07482 0.212992,0.07128 0.361987,0.104622 -0.04961,0.03544 0.293277,-0.481108 0.917742,-1.469782 z"
       style="opacity:1;fill:#cd5151;fill-opacity:1;stroke:#333333;stroke-width:0.123077;stroke-opacity:1"
       id="path14"
       sodipodi:nodetypes="ccssscc" /><path
       d="m 20.123702,16.860848 c 0,0 -0.06426,0.152448 -0.07406,0.175685 0.03148,-0.0081 0.06235,-0.01751 0.0945,-0.02483 0.01777,0.0035 0.03493,0.0078 0.05236,0.01144 z"
       style="fill:none;stroke:#333333;stroke-width:0.0799541;stroke-opacity:1"
       id="path17" /></g><g
     id="g15"
     transform="matrix(-2.9348533,0,0,2.8907639,67.469265,-42.168947)"><path
       style="opacity:1;fill:#ffccad;fill-opacity:1;stroke:#333333;stroke-width:0.21387;stroke-dasharray:none;stroke-opacity:1"
       d="M 20.187426,22.39444 V 20.307522"
       id="path7-6" /><path
       style="opacity:1;fill:#7174db;fill-opacity:0.798742;stroke:#333333;stroke-width:0.21387;stroke-dasharray:none;stroke-opacity:1"
       d="m 19.380629,19.550122 1.667383,1.581326 V 18.63575 l -1.667383,-1.387693 z"
       id="path9-1"
       sodipodi:nodetypes="ccccc" /><path
       style="opacity:1;fill:#ffffff;fill-opacity:1;stroke:none;stroke-width:0.253657;stroke-dasharray:none;stroke-opacity:1"
       d="m 20.760132,19.943645 -1.168111,-1.019609 c 0.129656,0.04124 0.256253,0.071 0.399136,0.161882 l 0.48919,0.336277 c 0,0 0.09776,-0.33775 -0.04382,-0.641989 -0.225502,-0.269863 0.08377,-0.167769 0.08377,-0.167769 l 0.133726,0.38913 z"
       id="path10-8"
       sodipodi:nodetypes="cccccccc" /><ellipse
       style="opacity:1;fill:#ffffff;fill-opacity:1;stroke:none;stroke-width:0.216151;stroke-dasharray:none;stroke-opacity:1"
       id="path11"
       ry="0.22900733"
       rx="0.19769783"
       cy="18.976719"
       cx="20.258808" /><path
       style="opacity:1;fill:none;fill-opacity:1;stroke:#ffffff;stroke-width:0.0592717;stroke-dasharray:none;stroke-opacity:1"
       d="m 19.563069,19.08567 0.07219,0.124054 0.174107,0.04932 0.07354,0.149487 0.160645,0.07874 0.09906,0.180953 0.192039,0.07812 0.09413,0.166898 0.199021,0.0907 c 0.03656,0.05589 0.04936,0.111953 0.08592,0.149984 0.03977,0.04136 0.103324,0.06383 0.143101,0.104378"
       id="path12"
       sodipodi:nodetypes="cccccccccsc" /><path
       style="fill:none;fill-opacity:1;stroke:#ffffff;stroke-width:0.0592717;stroke-dasharray:none;stroke-opacity:1"
       d="m 19.556809,19.223473 0.07216,0.124028 0.166146,0.05459 0.08144,0.144174 0.160611,0.07873 0.09904,0.180916 0.192001,0.07809 0.09411,0.166864 0.198979,0.09069 c 0.03657,0.05588 0.04935,0.11193 0.08591,0.149953 0.03977,0.04135 0.1033,0.06382 0.14307,0.104366"
       id="path12-9"
       sodipodi:nodetypes="cccccccccsc" /></g><path
     style="opacity:0.5;fill:url(#linearGradient19);stroke:#a4a4a4;stroke-width:0.249312;stroke-dasharray:none;stroke-opacity:0.1"
     id="path16-35"
     d="m 12.155062,28.24692 c -0.09327,-0.210369 -0.07197,-0.652027 -0.0449,-0.712114 0.174086,-0.380395 0.323508,-0.696964 0.176337,-1.152024 -0.0689,-0.213072 0.246712,-0.383577 0.334835,-0.603761 0.02891,-0.07988 0.05407,-0.461062 0.07931,-0.544937 0.02981,-0.09899 0.305652,-0.387796 0.329309,-0.490615 0.0583,-0.25326 -0.165048,-0.196504 -0.119765,-0.452697 0.05281,-0.298999 0.119092,-0.170154 0.169907,-0.466138 0.02056,-0.10494 0.01571,-0.02595 0.03853,-0.130319 0.07573,-0.346759 -0.244601,-0.664141 -0.127342,-0.977905 0.02663,-0.07124 0.0553,-0.13933 0.08296,-0.208995 0.02968,-0.06513 0.05915,-0.130671 0.08895,-0.195397 0.03489,-0.07567 0.06952,-0.152029 0.105236,-0.225774 0.03903,-0.08059 0.07936,-0.157735 0.118864,-0.237096 0.06066,-0.121854 0.182375,-0.367697 0.24195,-0.495453 0.03603,-0.07729 0.115293,-0.432429 0.150687,-0.511133 0.100242,-0.233998 0.168999,-0.573257 0.230052,-0.851309 0.01999,-0.09124 0.05151,-0.380114 0.06725,-0.472982 0.03705,-0.244296 0.08843,-0.412828 0.147151,-0.652951 0.01316,-0.05392 0.08701,-0.365152 0.100954,-0.418669 0.06257,-0.238393 0.100917,-0.05861 0.179212,-0.281961 0.03029,-0.272002 0.170031,-0.119066 0.08413,-0.257643 l -0.19627,-0.316709 v 0 c -0.06384,0.166963 -0.03239,0.0869 -0.09424,0.240486 -0.031,0.0898 -0.03582,0.100783 -0.06407,0.194887 -0.05325,0.177579 -0.09832,0.361259 -0.14831,0.541171 -0.02887,0.107467 -0.05959,0.213765 -0.08743,0.321852 -0.05028,0.195122 -0.0838,0.394577 -0.110018,0.593238 -0.02444,0.161185 -0.04851,0.325982 -0.08539,0.486064 -0.04855,0.211103 -0.03015,0.265235 -0.102442,0.454221 -0.03292,0.07972 -0.06399,0.318093 -0.09803,0.395711 -0.08341,0.19029 -0.172648,0.393431 -0.263615,0.56627 -0.0048,0.0091 -0.29145,0.339733 -0.300694,0.358412 -0.03215,0.06499 -0.06142,0.136838 -0.09212,0.205257 -0.08121,0.197382 0.01488,0.211023 -0.05072,0.428082 -0.02489,0.08217 -0.162014,0.185185 -0.184136,0.269403 -0.07932,0.302072 -0.152019,0.608674 -0.219547,0.916107 -0.06557,0.39948 0.144764,0.143394 0.08518,0.549503 -0.03287,0.200258 -0.256508,0.490678 -0.30578,0.687963 -0.05211,0.208709 0.04822,0.318786 -0.01562,0.513734 -0.03071,0.08567 -0.201375,0.174519 -0.232978,0.258956 -0.18901,0.504955 -0.430099,0.58231 -0.233424,1.12674 0.11196,0.620454 -0.280243,1.131926 -0.469113,1.37827 z"
     sodipodi:nodetypes="ccsccccccscssscccccccscscccccccscccsccccccccc" /><path
     style="opacity:0.5;fill:url(#linearGradient25);stroke:#a4a4a4;stroke-width:0.250093;stroke-dasharray:none;stroke-opacity:0.1"
     id="path16-35-0"
     d="m 16.658996,28.510043 c 0.09475,-0.211238 0.09933,-0.675366 0.07272,-0.736058 -0.171141,-0.38423 -0.318105,-0.704021 -0.167698,-1.161321 0.07042,-0.214119 -0.24368,-0.387916 -0.330106,-0.610235 -0.0283,-0.08064 -0.05063,-0.464676 -0.07523,-0.549309 -0.02907,-0.09988 -0.302539,-0.392553 -0.32542,-0.496255 -0.05638,-0.255433 0.16636,-0.196802 0.123005,-0.4551 -0.05057,-0.301461 -0.117746,-0.172143 -0.16633,-0.470553 -0.01978,-0.105816 -0.01551,-0.02622 -0.03754,-0.131493 -0.07312,-0.349706 0.249295,-0.667214 0.134445,-0.983967 -0.02609,-0.07193 -0.05422,-0.140681 -0.08136,-0.21102 -0.02915,-0.06578 -0.05813,-0.131984 -0.08744,-0.197363 -0.03431,-0.07644 -0.06835,-0.153562 -0.103485,-0.228063 -0.0384,-0.08142 -0.07813,-0.159375 -0.117018,-0.239557 -0.05972,-0.123114 -0.179511,-0.371498 -0.238095,-0.50055 -0.03544,-0.07807 -0.112006,-0.436243 -0.146793,-0.515737 -0.09843,-0.236311 -0.164623,-0.57842 -0.223583,-0.858837 -0.0193,-0.09202 -0.04868,-0.383138 -0.06372,-0.476766 -0.03522,-0.246265 -0.08532,-0.416325 -0.14223,-0.65853 -0.01276,-0.0544 -0.08424,-0.368307 -0.09778,-0.422294 -0.06076,-0.24049 -0.100403,-0.0597 -0.176985,-0.285136 -0.02826,-0.274121 -0.169013,-0.121029 -0.08216,-0.260017 l 0.198447,-0.317648 v 0 c 0.06257,0.168562 0.03171,0.08773 0.09239,0.242805 0.03032,0.09064 0.03505,0.101733 0.06257,0.196688 0.05188,0.179187 0.09558,0.36446 0.144203,0.545969 0.02806,0.108419 0.05797,0.215671 0.08499,0.324707 0.0488,0.19683 0.08082,0.397912 0.10557,0.598149 0.02323,0.162483 0.04607,0.328605 0.08173,0.490059 0.04696,0.212916 0.02817,0.267308 0.09902,0.458105 0.0323,0.08049 0.06159,0.320759 0.09502,0.399153 0.08194,0.192182 0.169604,0.397349 0.259222,0.572009 0.0047,0.0092 0.288701,0.344058 0.297801,0.36293 0.03165,0.06565 0.06036,0.138209 0.09053,0.207312 0.07969,0.199315 -0.01643,0.212417 0.04752,0.431442 0.02427,0.08291 0.160517,0.18756 0.181998,0.27252 0.07706,0.304725 0.147396,0.613976 0.212614,0.924026 0.06257,0.402733 -0.145703,0.143449 -0.08915,0.552818 0.03138,0.201889 0.252675,0.495836 0.300453,0.694841 0.05053,0.210526 -0.05053,0.320716 0.01182,0.517464 0.03006,0.08647 0.199925,0.177081 0.230875,0.262322 0.185131,0.509768 0.425449,0.589263 0.224928,1.136237 -0.116442,0.624093 0.245516,1.012821 0.432414,1.262152 z"
     sodipodi:nodetypes="ccsccccccscssscccccccscscccccccscccsccccccccc" /><path
     style="opacity:0.5;fill:url(#linearGradient26);stroke:#a4a4a4;stroke-width:0.174714;stroke-dasharray:none;stroke-opacity:0.1"
     id="path16-35-0-3"
     d="m 14.112115,28.673157 c 0.07725,-0.183731 0.146373,-0.61989 0.141972,-0.681262 -0.0292,-0.388984 -0.217732,-0.730184 -0.07754,-1.136654 0.06564,-0.190321 0.0975,-0.38729 0.08681,-0.610349 -0.0023,-0.08042 -0.064,-0.244678 -0.06396,-0.328268 3.5e-5,-0.09866 0.01301,-0.618585 0.01664,-0.719847 0.0089,-0.249438 0.06071,-0.292586 0.07649,-0.542644 0.01844,-0.291835 0.01647,-0.04696 0.03547,-0.3356 0.0054,-0.102767 -0.0038,-0.02716 4.04e-4,-0.129767 0.01426,-0.340846 -0.0097,-0.588291 -0.02091,-0.904777 -0.0025,-0.07186 0.01385,-0.266578 0.076,-0.265998 -0.0049,-0.06657 -0.01593,-0.183712 -0.02099,-0.249932 -0.0058,-0.07743 0.137891,-0.05087 0.13127,-0.126603 -0.0072,-0.08277 -0.01565,-0.162482 -0.0233,-0.244162 -0.01176,-0.125415 -0.03516,-0.378333 -0.04551,-0.509157 -0.0061,-0.07915 0.0075,-0.428509 0.0018,-0.508888 -0.01457,-0.238145 0.0019,-0.570737 0.01326,-0.844103 0.0037,-0.0897 0.03119,-0.368413 0.03721,-0.458949 0.01804,-0.237437 0.01783,-0.405505 0.0246,-0.642574 0.0014,-0.05323 0.01144,-0.36013 0.01254,-0.413109 0.0046,-0.23607 -0.04102,-0.07221 -0.04636,-0.296637 0.02558,-0.262534 -0.06607,-0.140886 -0.0031,-0.257864 l 0.143807,-0.26735 v 0 c 0.0066,0.168649 0.003,0.08764 0.01064,0.243293 0.0018,0.09015 0.0026,0.101354 0.0026,0.195127 -1.75e-4,0.176947 -0.0053,0.358316 -0.0073,0.536932 -0.0018,0.106529 -0.0024,0.212258 -0.0047,0.319205 -0.0042,0.193068 -0.0174,0.387458 -0.03401,0.57989 -0.01189,0.156663 -0.02455,0.316676 -0.03022,0.474338 -0.0075,0.207912 -0.02459,0.256116 -0.01708,0.447015 0.0043,0.08093 -0.01577,0.311763 -0.01053,0.390885 0.01279,0.193979 0.02656,0.401089 0.04566,0.579794 0.001,0.0094 0.09307,0.36992 0.09485,0.389136 0.006,0.06687 0.0098,0.139727 0.01488,0.20959 0.01064,0.200329 -0.03872,0.197328 -0.03864,0.41371 4.1e-5,0.08192 0.05227,0.202159 0.05064,0.28556 -0.0057,0.299133 -0.01563,0.601458 -0.02809,0.903716 -0.0271,0.389081 -0.09267,0.111789 -0.123693,0.506154 0.104787,0.195044 0.05338,0.507045 0.04833,0.701992 -0.0053,0.206232 0.07836,0.335669 0.08084,0.53082 0.0023,0.08619 -0.07627,0.156746 -0.07326,0.241922 0.01802,0.509384 0.268608,0.630916 0.09074,1.113803 -0.147441,0.568896 -0.167925,0.984183 -0.11151,1.248695 z"
     sodipodi:nodetypes="ccsccccccscssscccccccscscccccccscccsccccccccc" /><path
     style="opacity:0.685879;fill:none;fill-opacity:0.305733;stroke:url(#linearGradient28);stroke-width:0.591845;stroke-dasharray:none;stroke-opacity:0.805733"
     d="m 14.502358,15.637067 c 0,0 -0.267874,1.073827 -0.745643,2.92959 -0.07297,0.283467 -2.008957,1.644708 -2.038122,1.87219 -0.146226,1.140513 -0.262436,0.905306 -0.330647,1.802849 -0.04125,0.542918 0.338309,1.520854 -0.473344,2.566304 -1.7013904,2.191471 -0.741214,0.744556 -2.3824124,2.756929"
     id="path27-8"
     sodipodi:nodetypes="cssssc" /><path
     style="opacity:0.685879;fill:none;fill-opacity:1;stroke:url(#linearGradient31);stroke-width:0.640063;stroke-dasharray:none"
     d="m 13.698546,15.906788 c 0.524995,0.525193 0.546813,0.247558 0.645183,1.053463 0.05061,0.466708 0.104638,0.635845 0.153894,0.974767 0.02493,0.171629 0.132849,0.718873 0.20043,0.883233 0.204757,0.497994 0.437125,0.967877 0.66425,1.261175 0.208477,0.26922 0.07245,0.397163 0.455891,0.601175 0.192991,0.102683 0.454573,0.248263 0.749841,0.420288 0.159222,0.09276 0.32824,0.193217 0.501581,0.298784 0.882875,0.537679 1.877899,1.207953 2.261953,1.670027 0.58117,0.699233 -0.384433,1.288715 -0.672546,1.880373 -0.288111,0.591659 -0.882661,1.330198 -0.536926,1.885996 0.345734,0.555802 1.829089,0.89953 1.829089,0.89953"
     id="path28-7"
     sodipodi:nodetypes="ccsssssssssc" /><ellipse
     style="display:inline;fill:none;fill-opacity:1;stroke:#333333;stroke-width:0.944613;stroke-dasharray:none;stroke-opacity:1"
     id="path1"
     cx="14.769232"
     cy="14.769231"
     rx="14.296926"
     ry="14.296925" /></svg>
