<?xml version="1.0" encoding="UTF-8" standalone="no"?>
<svg
   width="48"
   height="48"
   viewBox="0 0 29.538462 29.538462"
   version="1.1"
   id="svg3"
   sodipodi:docname="ChurchOFFNight.svg"
   inkscape:version="1.4 (86a8ad7, 2024-10-11)"
   xml:space="preserve"
   xmlns:inkscape="http://www.inkscape.org/namespaces/inkscape"
   xmlns:sodipodi="http://sodipodi.sourceforge.net/DTD/sodipodi-0.dtd"
   xmlns="http://www.w3.org/2000/svg"
   xmlns:svg="http://www.w3.org/2000/svg"><defs
     id="defs3"><clipPath
       clipPathUnits="userSpaceOnUse"
       id="clipPath8"><path
         id="path8"
         style="fill:#ff0000;fill-opacity:1;fill-rule:nonzero;stroke:none;stroke-width:0.615385"
         d="m -392.61538,-388.92308 v 800 h 800 v -800 z m 195.13341,379.6622628 c 0.98766,0.019477 1.94608,0.085448 2.86298,0.2055286 3.53409,0.4628388 4.26553,1.1354868 7.07092,2.6610578 2.33021,1.693337 3.2503,2.1851155 5.23798,4.4134616 3.82824,4.2917917 5.85447,9.7432418 7.59495,15.1274032 3.42148,12.587248 4.77105,25.524674 5.85697,38.500001 1.58846,17.263107 3.45183,34.531568 3.39423,51.893025 -0.10772,2.9333 -0.13224,5.87022 -0.32332,8.79928 -0.87662,13.43734 -3.7338,26.65395 -6.01202,39.89303 -1.60656,8.28125 -3.10621,16.60818 -5.30649,24.75962 -1.16861,4.32936 -2.24959,8.19173 -4.4375,12.11778 -0.78462,1.40792 -1.86464,2.62987 -2.79687,3.94472 -1.07258,1.00245 -2.04043,2.12988 -3.21755,3.00721 -5.15748,3.84397 -11.60825,4.13594 -17.77885,4.30528 -11.66545,0.38767 -23.33312,0.14038 -35.0024,0.0469 -14.98376,-0.16309 -29.96832,-0.36876 -44.94592,-0.84976 -9.77382,-0.2893 -19.55055,-0.38635 -29.32091,-0.76563 -7.8651,-0.43912 -15.76872,-0.99161 -23.44832,-2.85817 -7.9351,-2.38047 -15.26281,-5.90383 -19.59615,-13.35937 -0.64108,-1.33185 -1.38753,-2.61752 -1.92308,-3.9952 -3.51363,-9.03865 -2.91477,-19.14491 -3.47235,-28.62379 -0.0907,-15.21027 0.13161,-30.42462 0.70072,-45.62501 0.62718,-13.464082 1.49382,-26.912427 2.37741,-40.361775 0.45369,-10.81738 0.67076,-21.637776 0.55288,-32.465141 V 16.536058 c 0,-12.9855077 13.11659,-12.9855077 13.11659,0 v 14.973557 c 0.11973,11.010066 -0.10512,22.013246 -0.56371,33.013222 -0.87754,13.470492 -1.75226,26.939434 -2.3798,40.424273 -0.55556,14.97069 -0.7787,29.95479 -0.6863,44.9351 0.64995,8.81774 -0.50578,18.74931 3.97716,26.76683 2.67044,3.93222 7.18333,5.47434 11.56731,6.69831 6.73092,1.52162 13.63501,1.9742 20.50601,2.35457 9.65727,0.36422 19.32035,0.4653 28.98077,0.75121 14.89582,0.47857 29.79874,0.68161 44.70072,0.84374 11.4756,0.0847 22.95009,0.34435 34.42187,-0.0409 3.26461,-0.40843 7.23298,0.30245 10.25,-1.43149 0.55695,-0.32008 1.60408,-1.68093 1.91346,-2.05048 0.39188,-0.65811 0.85297,-1.28003 1.17548,-1.97475 1.18826,-2.55966 2.05604,-5.86025 2.73919,-8.49039 2.02161,-7.78328 3.48985,-15.68348 5.01923,-23.57332 2.18847,-12.8293 5.00597,-25.63127 5.83293,-38.65264 0.16926,-2.66519 0.18003,-5.33818 0.27043,-8.00721 0.003,-16.804259 -1.80968,-33.516905 -3.34735,-50.227166 -1.09715,-12.188746 -2.15471,-24.40448 -5.44351,-36.227164 -1.67723,-5.172328 -3.07268,-9.2588671 -7.71514,-12.27524 -0.42486,-0.1998396 -0.81992,-0.485211 -1.27525,-0.5997596 -1.35526,-0.3409576 -7.19627,0.6820402 -7.83173,0.7776442 -2.97793,0.4480323 -9.82439,1.7484034 -12.54567,2.2536059 -17.52083,3.6873855 -35.08478,6.9811475 -52.82572,9.4122595 -14.40364,1.895548 -28.86401,3.3694 -43.39784,3.46875 -7.54745,0.009 -15.08078,-0.512229 -22.59615,-1.152645 -12.93862,-1.10255 -11.81871,-14.1829455 1.11899,-13.0697108 7.11663,0.6123559 14.25054,1.1058373 21.39783,1.1045672 13.96517,-0.071367 27.85767,-1.5492708 41.69832,-3.3461537 17.53655,-2.39774188 34.89206,-5.6759411 52.21154,-9.3137019 6.33609,-1.1750423 14.72943,-3.2781776 21.64303,-3.1418269 z" /></clipPath></defs><sodipodi:namedview
     id="namedview3"
     pagecolor="#ffffff"
     bordercolor="#111111"
     borderopacity="1"
     inkscape:showpageshadow="0"
     inkscape:pageopacity="0"
     inkscape:pagecheckerboard="1"
     inkscape:deskcolor="#d1d1d1"
     inkscape:zoom="11.313709"
     inkscape:cx="25.455843"
     inkscape:cy="25.809396"
     inkscape:window-width="1920"
     inkscape:window-height="1056"
     inkscape:window-x="-8"
     inkscape:window-y="-8"
     inkscape:window-maximized="1"
     inkscape:current-layer="svg3"
     showgrid="false"
     showguides="false" /><ellipse
     style="fill:none;fill-opacity:1;stroke:#d08821;stroke-width:0.944613;stroke-dasharray:none;stroke-opacity:1"
     id="path1"
     cx="14.769231"
     cy="14.778846"
     rx="14.296926"
     ry="14.296925" /><g
     id="g1"
     style="display:inline"><g
       id="g2"><path
         style="fill:none;stroke:#372104;stroke-width:0.133554;stroke-dasharray:none;stroke-opacity:1"
         d="M 11.478072,11.641246 14.295458,7.1767216"
         id="path2"
         sodipodi:nodetypes="cc" /><path
         style="fill:none;stroke:#633f0c;stroke-width:0.202263;stroke-dasharray:none;stroke-opacity:1"
         d="M 13.102327,10.787214 14.543301,7.1974912"
         id="path2-8-5"
         sodipodi:nodetypes="cc" /><path
         style="fill:none;stroke:#372104;stroke-width:0.139583;stroke-dasharray:none;stroke-opacity:1"
         d="M 18.095062,11.857272 15.144663,7.168099"
         id="path2-2"
         sodipodi:nodetypes="cc" /><path
         style="fill:none;stroke:#633f0c;stroke-width:0.199477;stroke-dasharray:none;stroke-opacity:1"
         d="M 16.2705,10.874348 14.856024,7.1916499"
         id="path2-8-4"
         sodipodi:nodetypes="cc" /><path
         style="fill:none;stroke:#a36b1a;stroke-width:0.289846;stroke-dasharray:none;stroke-opacity:1"
         d="m 14.666903,10.075887 0.03366,-2.8748039"
         id="path2-8-8"
         sodipodi:nodetypes="cc" /></g><path
       style="display:none;fill:none;fill-opacity:1;stroke:#d08821;stroke-width:0.228809;stroke-dasharray:none;stroke-opacity:1"
       d="m 11.023788,13.497806 -0.0398,10.887599 h 7.521266 l -0.07959,-10.806043 -3.692986,-1.97771 z"
       id="path29"
       sodipodi:nodetypes="cccccc" /><path
       style="display:inline;fill:none;fill-opacity:1;stroke:#885816;stroke-width:0.195141;stroke-dasharray:none;stroke-opacity:1"
       d="M 10.162324,25.772219 9.3648567,26.548293 20.206207,26.548177 19.359081,25.759455 Z"
       id="path22"
       sodipodi:nodetypes="ccccc" /><path
       style="fill:#9c6719;fill-opacity:0.678344;stroke:#7b5114;stroke-width:0.227473;stroke-dasharray:none;stroke-opacity:1"
       d="m 13.349349,24.286633 v -4.176318 l 2.682389,0.01933 v 4.176319 z"
       id="path12" /><path
       style="display:inline;fill:none;fill-opacity:0.308176;stroke:#f09d25;stroke-width:0.275077;stroke-dasharray:none;stroke-opacity:1"
       d="m 11.061921,13.566492 -0.02833,10.796945 h 7.337214 l -0.02832,-10.796945 -3.702038,-1.858661 z"
       id="path6"
       sodipodi:nodetypes="cccccc" /><path
       style="fill:none;fill-opacity:1;stroke:#d08821;stroke-width:0.20625;stroke-dasharray:none;stroke-opacity:1"
       d="m 14.610304,10.184493 -4.7218146,2.77004 1.1984636,0.468844 3.559671,-1.794647 3.451759,1.800942 1.310171,-0.40714 z"
       id="path3"
       sodipodi:nodetypes="ccccccc" /><path
       style="fill:none;fill-opacity:0.603774;stroke:#805314;stroke-width:0.451172;stroke-dasharray:none;stroke-opacity:1"
       d="m 7.790105,19.225789 h 0.6367203 l 0.3183613,0.487089 v 1.427286 L 8.4268253,21.50933 H 7.790105 l -0.3183601,-0.3115 v -1.456121 z"
       id="path13"
       sodipodi:nodetypes="ccccccccc" /><path
       style="display:inline;fill:#805314;fill-opacity:0.308917;stroke:#9d6719;stroke-width:0.451172;stroke-dasharray:none;stroke-opacity:1"
       d="M 9.5578592,12.780076 13.98852,6.9937914 h 1.412725 l 4.363575,5.8607276 -5.108582,-2.680081 z"
       id="path14"
       sodipodi:nodetypes="cccccc" /><path
       style="fill:none;fill-opacity:1;stroke:#6c4611;stroke-width:0.195141;stroke-dasharray:none;stroke-opacity:1"
       d="m 10.154145,25.204619 v 0.467396 l 9.185209,5.8e-5 V 25.20495 Z"
       id="path23"
       sodipodi:nodetypes="ccccc" /><path
       style="fill:none;fill-opacity:1;stroke:#754c13;stroke-width:0.195141;stroke-dasharray:none;stroke-opacity:1"
       d="m 10.7819,24.517262 -0.551295,0.539181 9.032339,1.4e-4 -0.515669,-0.485746 z"
       id="path24"
       sodipodi:nodetypes="ccccc" /><path
       style="fill:none;fill-opacity:1;stroke:#8c5b16;stroke-width:0.195141;stroke-dasharray:none;stroke-opacity:1"
       d="m 9.2797567,26.623499 v 0.729878 H 20.297047 l 4e-6,-0.729878 z"
       id="path25"
       sodipodi:nodetypes="ccccc" /><path
       d="M 14.451825,1.1916923 V 2.2556031 H 13.48067 v 0.5094348 h 0.971155 l 0.0096,2.096625 h 0.523806 c 1.8e-5,-1.0138247 3.6e-5,-1.4130902 5.4e-5,-2.096625 h 0.961244 V 2.2556031 H 14.9853 V 1.1916923 Z"
       style="fill:none;fill-opacity:1;stroke:#ffa529;stroke-width:0.204923;stroke-dasharray:none;stroke-opacity:1"
       id="path27"
       sodipodi:nodetypes="ccccccccccccc" /><path
       id="path15"
       style="fill:none;fill-opacity:1;stroke:#ffa728;stroke-width:0.203077;stroke-dasharray:none;stroke-opacity:1"
       d="m 14.729026,4.8581774 c -0.59823,0 -1.083191,0.4202656 -1.083191,0.9386895 0.0013,0.1587156 0.04894,0.3145629 0.138581,0.4529723 l 0.188074,0.4720736 c 0.493835,0.018095 0.98883,-0.00726 1.483377,-0.012278 l 0.19373,-0.4202276 c 0.105853,-0.1479372 0.16216,-0.3184685 0.162619,-0.4925391 0,-0.5184241 -0.48496,-0.9386897 -1.08319,-0.9386907 z"
       sodipodi:nodetypes="sccccccs" /><path
       style="fill:none;fill-opacity:0.751572;stroke:#d08821;stroke-width:0.0635001;stroke-dasharray:none;stroke-opacity:1"
       d="m 13.770273,6.3723421 0.168227,0.4484778 1.548817,-3.93e-5 0.195492,-0.4481274 z"
       id="path28"
       sodipodi:nodetypes="ccccc" /><path
       style="fill:none;fill-opacity:1;stroke:#bf7e1e;stroke-width:0.322266;stroke-dasharray:none;stroke-opacity:1"
       d="m 5.3544846,18.342923 0.02814,5.921693 5.4481444,-3e-6 v -5.921695 z"
       id="path9"
       sodipodi:nodetypes="ccccc" /><path
       style="fill:#805314;fill-opacity:0.308917;stroke:#996418;stroke-width:0.322266;stroke-dasharray:none;stroke-opacity:1"
       d="m 10.827077,13.727302 -6.3263888,3.01783 0.87232,1.581638 h 5.4540688 z"
       id="path7"
       sodipodi:nodetypes="ccccc" /><path
       style="fill:none;fill-opacity:0.603774;stroke:#805314;stroke-width:0.451172;stroke-dasharray:none;stroke-opacity:1"
       d="m 21.672154,19.231017 h -0.63672 l -0.318361,0.487089 v 1.427286 l 0.318361,0.369166 h 0.63672 l 0.31836,-0.3115 v -1.456121 z"
       id="path13-0"
       sodipodi:nodetypes="ccccccccc" /><path
       style="fill:none;fill-opacity:1;stroke:#bf7e1e;stroke-width:0.322266;stroke-dasharray:none;stroke-opacity:1"
       d="m 24.107774,18.386613 -0.02814,5.921693 -5.448144,-3e-6 v -5.921695 z"
       id="path9-9"
       sodipodi:nodetypes="ccccc" /><path
       style="fill:#805314;fill-opacity:0.308917;stroke:#996418;stroke-width:0.324134;stroke-dasharray:none;stroke-opacity:1"
       d="m 18.636356,13.734353 6.324064,3.054033 -0.872,1.600613 h -5.452064 z"
       id="path7-4"
       sodipodi:nodetypes="ccccc" /><path
       style="fill:#805314;fill-opacity:0.308917;stroke:#996418;stroke-width:0.390769;stroke-dasharray:none;stroke-opacity:1"
       d="m 14.711889,14.202832 -4.7316233,2.789271 1.1407713,0.468844 3.590852,-1.833108 3.555193,1.839403 1.287641,-0.40714 z"
       id="path3-5"
       sodipodi:nodetypes="ccccccc" /><path
       style="fill:none;fill-opacity:0.603774;stroke:#805314;stroke-width:0.451172;stroke-dasharray:none;stroke-opacity:1"
       d="m 14.4061,17.277894 h 0.636721 l 0.318362,0.48709 v 1.427286 l -0.318362,0.369165 H 14.4061 l -0.31836,-0.3115 v -1.456119 z"
       id="path13-5-5"
       sodipodi:nodetypes="ccccccccc" /></g></svg>
