<?xml version="1.0" encoding="UTF-8" standalone="no"?>
<svg
   width="48"
   height="48"
   viewBox="0 0 29.538462 29.538462"
   version="1.1"
   id="svg3"
   sodipodi:docname="RailWaysONNight.svg"
   inkscape:version="1.4 (86a8ad7, 2024-10-11)"
   xml:space="preserve"
   xmlns:inkscape="http://www.inkscape.org/namespaces/inkscape"
   xmlns:sodipodi="http://sodipodi.sourceforge.net/DTD/sodipodi-0.dtd"
   xmlns="http://www.w3.org/2000/svg"
   xmlns:svg="http://www.w3.org/2000/svg"><defs
     id="defs3"><clipPath
       clipPathUnits="userSpaceOnUse"
       id="clipPath8"><path
         id="path8"
         style="fill:#ff0000;fill-opacity:1;fill-rule:nonzero;stroke:none;stroke-width:0.615385"
         d="m -392.61538,-388.92308 v 800 h 800 v -800 z m 195.13341,379.6622628 c 0.98766,0.019477 1.94608,0.085448 2.86298,0.2055286 3.53409,0.4628388 4.26553,1.1354868 7.07092,2.6610578 2.33021,1.693337 3.2503,2.1851155 5.23798,4.4134616 3.82824,4.2917917 5.85447,9.7432418 7.59495,15.1274032 3.42148,12.587248 4.77105,25.524674 5.85697,38.500001 1.58846,17.263107 3.45183,34.531568 3.39423,51.893025 -0.10772,2.9333 -0.13224,5.87022 -0.32332,8.79928 -0.87662,13.43734 -3.7338,26.65395 -6.01202,39.89303 -1.60656,8.28125 -3.10621,16.60818 -5.30649,24.75962 -1.16861,4.32936 -2.24959,8.19173 -4.4375,12.11778 -0.78462,1.40792 -1.86464,2.62987 -2.79687,3.94472 -1.07258,1.00245 -2.04043,2.12988 -3.21755,3.00721 -5.15748,3.84397 -11.60825,4.13594 -17.77885,4.30528 -11.66545,0.38767 -23.33312,0.14038 -35.0024,0.0469 -14.98376,-0.16309 -29.96832,-0.36876 -44.94592,-0.84976 -9.77382,-0.2893 -19.55055,-0.38635 -29.32091,-0.76563 -7.8651,-0.43912 -15.76872,-0.99161 -23.44832,-2.85817 -7.9351,-2.38047 -15.26281,-5.90383 -19.59615,-13.35937 -0.64108,-1.33185 -1.38753,-2.61752 -1.92308,-3.9952 -3.51363,-9.03865 -2.91477,-19.14491 -3.47235,-28.62379 -0.0907,-15.21027 0.13161,-30.42462 0.70072,-45.62501 0.62718,-13.464082 1.49382,-26.912427 2.37741,-40.361775 0.45369,-10.81738 0.67076,-21.637776 0.55288,-32.465141 V 16.536058 c 0,-12.9855077 13.11659,-12.9855077 13.11659,0 v 14.973557 c 0.11973,11.010066 -0.10512,22.013246 -0.56371,33.013222 -0.87754,13.470492 -1.75226,26.939434 -2.3798,40.424273 -0.55556,14.97069 -0.7787,29.95479 -0.6863,44.9351 0.64995,8.81774 -0.50578,18.74931 3.97716,26.76683 2.67044,3.93222 7.18333,5.47434 11.56731,6.69831 6.73092,1.52162 13.63501,1.9742 20.50601,2.35457 9.65727,0.36422 19.32035,0.4653 28.98077,0.75121 14.89582,0.47857 29.79874,0.68161 44.70072,0.84374 11.4756,0.0847 22.95009,0.34435 34.42187,-0.0409 3.26461,-0.40843 7.23298,0.30245 10.25,-1.43149 0.55695,-0.32008 1.60408,-1.68093 1.91346,-2.05048 0.39188,-0.65811 0.85297,-1.28003 1.17548,-1.97475 1.18826,-2.55966 2.05604,-5.86025 2.73919,-8.49039 2.02161,-7.78328 3.48985,-15.68348 5.01923,-23.57332 2.18847,-12.8293 5.00597,-25.63127 5.83293,-38.65264 0.16926,-2.66519 0.18003,-5.33818 0.27043,-8.00721 0.003,-16.804259 -1.80968,-33.516905 -3.34735,-50.227166 -1.09715,-12.188746 -2.15471,-24.40448 -5.44351,-36.227164 -1.67723,-5.172328 -3.07268,-9.2588671 -7.71514,-12.27524 -0.42486,-0.1998396 -0.81992,-0.485211 -1.27525,-0.5997596 -1.35526,-0.3409576 -7.19627,0.6820402 -7.83173,0.7776442 -2.97793,0.4480323 -9.82439,1.7484034 -12.54567,2.2536059 -17.52083,3.6873855 -35.08478,6.9811475 -52.82572,9.4122595 -14.40364,1.895548 -28.86401,3.3694 -43.39784,3.46875 -7.54745,0.009 -15.08078,-0.512229 -22.59615,-1.152645 -12.93862,-1.10255 -11.81871,-14.1829455 1.11899,-13.0697108 7.11663,0.6123559 14.25054,1.1058373 21.39783,1.1045672 13.96517,-0.071367 27.85767,-1.5492708 41.69832,-3.3461537 17.53655,-2.39774188 34.89206,-5.6759411 52.21154,-9.3137019 6.33609,-1.1750423 14.72943,-3.2781776 21.64303,-3.1418269 z" /></clipPath><filter
       inkscape:collect="always"
       style="color-interpolation-filters:sRGB"
       id="filter1"
       x="-0.17292736"
       y="-0.1729274"
       width="1.3458547"
       height="1.3458548"><feGaussianBlur
         inkscape:collect="always"
         stdDeviation="1.3255792"
         id="feGaussianBlur1" /></filter></defs><sodipodi:namedview
     id="namedview3"
     pagecolor="#ffffff"
     bordercolor="#111111"
     borderopacity="1"
     inkscape:showpageshadow="0"
     inkscape:pageopacity="0"
     inkscape:pagecheckerboard="1"
     inkscape:deskcolor="#d1d1d1"
     inkscape:zoom="15.999999"
     inkscape:cx="14.250001"
     inkscape:cy="11.250001"
     inkscape:window-width="1920"
     inkscape:window-height="1056"
     inkscape:window-x="-8"
     inkscape:window-y="-8"
     inkscape:window-maximized="1"
     inkscape:current-layer="svg3"
     showgrid="false"
     showguides="false" /><ellipse
     style="fill:none;fill-opacity:1;stroke:#d08821;stroke-width:0.944613;stroke-dasharray:none;stroke-opacity:1"
     id="path1"
     cx="14.769231"
     cy="14.769232"
     rx="14.296925"
     ry="14.296926" /><g
     id="g1"><path
       style="fill:#734b10;fill-opacity:0.54140127;stroke:#9c6719;stroke-width:0.57998;stroke-dasharray:none;stroke-opacity:1"
       d="m 8.3465693,16.277067 2.8553687,1.298377 7.641573,0.07248 2.61062,-1.385902 -1.876375,3.52405 -9.545175,0.0061 z"
       id="path29"
       sodipodi:nodetypes="ccccccc" /><path
       style="fill:#c9605d;fill-opacity:1;stroke:#744c13;stroke-width:0.471299;stroke-opacity:1"
       d="M 10.21424,19.776331 7.5612468,26.223182"
       id="path20" /><path
       style="fill:#c9605d;fill-opacity:1;stroke:#744c13;stroke-width:0.454611;stroke-opacity:1"
       d="m 19.399554,19.682553 2.724924,6.427885"
       id="path21" /><path
       d="M 8.8786059,3.6237981 7.8978367,4.9122597 7.8701924,15.627404 10.009616,19.858173 h 9.58173 L 21.91827,15.627404 V 4.9122597 L 20.433895,3.6394231 Z m -0.4375,1.9026443 H 14.664664 V 10.605769 H 8.4411059 Z m 6.6959131,0 h 6.223558 v 5.0793266 h -6.223558 z"
       style="display:inline;fill:none;stroke:#d08821;stroke-width:0.444875;stroke-opacity:1;fill-opacity:1"
       id="path30" /><path
       d="M 8.4411059,5.5264424 V 10.605769 H 14.664664 V 5.5264424 Z"
       style="display:inline;fill:none;stroke:#805415;stroke-width:0.24615385;fill-opacity:1;stroke-opacity:1;stroke-dasharray:none"
       id="path31" /><path
       d="m 15.137019,5.5264424 v 5.0793266 h 6.223558 V 5.5264424 Z"
       style="display:inline;fill:none;stroke:#805313;stroke-width:0.24615385;fill-opacity:1;stroke-opacity:1;stroke-dasharray:none"
       id="path32" /><ellipse
       style="fill:none;fill-opacity:1;stroke:#b8791d;stroke-width:0.438047;stroke-opacity:1"
       id="path25"
       cx="11.572392"
       cy="15.117902"
       rx="0.96687591"
       ry="0.87446249" /><ellipse
       style="fill:none;fill-opacity:1;stroke:#d08821;stroke-width:0.18811;stroke-opacity:1"
       id="path25-7"
       cx="13.287976"
       cy="14.345161"
       rx="0.40109789"
       ry="0.3887274" /><ellipse
       style="fill:none;fill-opacity:1;stroke:#d08821;stroke-width:0.18811;stroke-opacity:1"
       id="path25-7-6"
       cx="16.525269"
       cy="14.34516"
       rx="0.40109789"
       ry="0.3887274" /><ellipse
       style="fill:none;fill-opacity:1;stroke:#b8791d;stroke-width:0.438047;stroke-opacity:1"
       id="path25-6"
       cx="18.329033"
       cy="15.070232"
       rx="0.96687591"
       ry="0.87446249" /><path
       style="fill:#c9605d;fill-opacity:1;stroke:#a16b1e;stroke-width:0.639571;stroke-dasharray:none;stroke-opacity:1"
       d="M 22.064203,25.795767 H 7.7698463"
       id="path22" /><path
       style="fill:#c9605d;fill-opacity:1;stroke:#a16b1e;stroke-width:0.523199;stroke-dasharray:none;stroke-opacity:1"
       d="m 9.0276661,22.979369 11.8552289,0.03663"
       id="path23" /><path
       style="fill:#c9605d;fill-opacity:1;stroke:#a16b1e;stroke-width:0.344799;stroke-dasharray:none;stroke-opacity:1"
       d="m 9.7561536,20.915784 10.2840214,0.01834"
       id="path23-7" /></g><ellipse
     style="display:inline;fill:none;fill-opacity:1;stroke:#ff9600;stroke-width:2.54676;stroke-dasharray:none;stroke-opacity:1;filter:url(#filter1)"
     id="path1-7-2-6"
     cx="14.769083"
     cy="14.76908"
     rx="12.880466"
     ry="12.880464" /></svg>
