<?xml version="1.0" encoding="UTF-8" standalone="no"?>
<svg
   width="48"
   height="48"
   viewBox="0 0 29.538462 29.538462"
   version="1.1"
   id="svg3"
   sodipodi:docname="RoadsOFFNight.svg"
   inkscape:version="1.4 (86a8ad7, 2024-10-11)"
   xml:space="preserve"
   xmlns:inkscape="http://www.inkscape.org/namespaces/inkscape"
   xmlns:sodipodi="http://sodipodi.sourceforge.net/DTD/sodipodi-0.dtd"
   xmlns="http://www.w3.org/2000/svg"
   xmlns:svg="http://www.w3.org/2000/svg"><defs
     id="defs3"><clipPath
       clipPathUnits="userSpaceOnUse"
       id="clipPath8"><path
         id="path8"
         style="fill:#ff0000;fill-opacity:1;fill-rule:nonzero;stroke:none;stroke-width:0.615385"
         d="m -392.61538,-388.92308 v 800 h 800 v -800 z m 195.13341,379.6622628 c 0.98766,0.019477 1.94608,0.085448 2.86298,0.2055286 3.53409,0.4628388 4.26553,1.1354868 7.07092,2.6610578 2.33021,1.693337 3.2503,2.1851155 5.23798,4.4134616 3.82824,4.2917917 5.85447,9.7432418 7.59495,15.1274032 3.42148,12.587248 4.77105,25.524674 5.85697,38.500001 1.58846,17.263107 3.45183,34.531568 3.39423,51.893025 -0.10772,2.9333 -0.13224,5.87022 -0.32332,8.79928 -0.87662,13.43734 -3.7338,26.65395 -6.01202,39.89303 -1.60656,8.28125 -3.10621,16.60818 -5.30649,24.75962 -1.16861,4.32936 -2.24959,8.19173 -4.4375,12.11778 -0.78462,1.40792 -1.86464,2.62987 -2.79687,3.94472 -1.07258,1.00245 -2.04043,2.12988 -3.21755,3.00721 -5.15748,3.84397 -11.60825,4.13594 -17.77885,4.30528 -11.66545,0.38767 -23.33312,0.14038 -35.0024,0.0469 -14.98376,-0.16309 -29.96832,-0.36876 -44.94592,-0.84976 -9.77382,-0.2893 -19.55055,-0.38635 -29.32091,-0.76563 -7.8651,-0.43912 -15.76872,-0.99161 -23.44832,-2.85817 -7.9351,-2.38047 -15.26281,-5.90383 -19.59615,-13.35937 -0.64108,-1.33185 -1.38753,-2.61752 -1.92308,-3.9952 -3.51363,-9.03865 -2.91477,-19.14491 -3.47235,-28.62379 -0.0907,-15.21027 0.13161,-30.42462 0.70072,-45.62501 0.62718,-13.464082 1.49382,-26.912427 2.37741,-40.361775 0.45369,-10.81738 0.67076,-21.637776 0.55288,-32.465141 V 16.536058 c 0,-12.9855077 13.11659,-12.9855077 13.11659,0 v 14.973557 c 0.11973,11.010066 -0.10512,22.013246 -0.56371,33.013222 -0.87754,13.470492 -1.75226,26.939434 -2.3798,40.424273 -0.55556,14.97069 -0.7787,29.95479 -0.6863,44.9351 0.64995,8.81774 -0.50578,18.74931 3.97716,26.76683 2.67044,3.93222 7.18333,5.47434 11.56731,6.69831 6.73092,1.52162 13.63501,1.9742 20.50601,2.35457 9.65727,0.36422 19.32035,0.4653 28.98077,0.75121 14.89582,0.47857 29.79874,0.68161 44.70072,0.84374 11.4756,0.0847 22.95009,0.34435 34.42187,-0.0409 3.26461,-0.40843 7.23298,0.30245 10.25,-1.43149 0.55695,-0.32008 1.60408,-1.68093 1.91346,-2.05048 0.39188,-0.65811 0.85297,-1.28003 1.17548,-1.97475 1.18826,-2.55966 2.05604,-5.86025 2.73919,-8.49039 2.02161,-7.78328 3.48985,-15.68348 5.01923,-23.57332 2.18847,-12.8293 5.00597,-25.63127 5.83293,-38.65264 0.16926,-2.66519 0.18003,-5.33818 0.27043,-8.00721 0.003,-16.804259 -1.80968,-33.516905 -3.34735,-50.227166 -1.09715,-12.188746 -2.15471,-24.40448 -5.44351,-36.227164 -1.67723,-5.172328 -3.07268,-9.2588671 -7.71514,-12.27524 -0.42486,-0.1998396 -0.81992,-0.485211 -1.27525,-0.5997596 -1.35526,-0.3409576 -7.19627,0.6820402 -7.83173,0.7776442 -2.97793,0.4480323 -9.82439,1.7484034 -12.54567,2.2536059 -17.52083,3.6873855 -35.08478,6.9811475 -52.82572,9.4122595 -14.40364,1.895548 -28.86401,3.3694 -43.39784,3.46875 -7.54745,0.009 -15.08078,-0.512229 -22.59615,-1.152645 -12.93862,-1.10255 -11.81871,-14.1829455 1.11899,-13.0697108 7.11663,0.6123559 14.25054,1.1058373 21.39783,1.1045672 13.96517,-0.071367 27.85767,-1.5492708 41.69832,-3.3461537 17.53655,-2.39774188 34.89206,-5.6759411 52.21154,-9.3137019 6.33609,-1.1750423 14.72943,-3.2781776 21.64303,-3.1418269 z" /></clipPath></defs><sodipodi:namedview
     id="namedview3"
     pagecolor="#ffffff"
     bordercolor="#111111"
     borderopacity="1"
     inkscape:showpageshadow="0"
     inkscape:pageopacity="0"
     inkscape:pagecheckerboard="1"
     inkscape:deskcolor="#d1d1d1"
     inkscape:zoom="16"
     inkscape:cx="26.6875"
     inkscape:cy="22.0625"
     inkscape:window-width="1920"
     inkscape:window-height="1056"
     inkscape:window-x="-8"
     inkscape:window-y="-8"
     inkscape:window-maximized="1"
     inkscape:current-layer="svg3"
     showgrid="false"
     showguides="false" /><ellipse
     style="fill:none;fill-opacity:1;stroke:#d08821;stroke-width:0.944613;stroke-dasharray:none;stroke-opacity:1"
     id="path1"
     cx="14.769232"
     cy="14.769231"
     rx="14.296926"
     ry="14.296925" /><path
     style="display:inline;fill:none;fill-opacity:0.707547;stroke:none;stroke-width:0.0304468;stroke-dasharray:none;stroke-opacity:1"
     d="M 14.004419,28.408049 C 13.450737,28.374123 12.723632,28.277056 12.162955,28.162217 10.149291,27.749772 8.2948196,26.894458 6.6485232,25.618863 6.2209196,25.287543 5.5561242,24.706974 5.5680753,24.6753 c 0.00299,-0.0079 0.4667931,-0.947428 1.0306789,-2.087802 l 1.0252463,-2.073404 0.059725,0.0113 c 0.3554434,0.06721 1.4961722,0.08577 2.2396161,0.03642 0.4251624,-0.02823 1.0362204,-0.07941 1.1695774,-0.09796 l 0.08461,-0.01177 -10e-7,-0.883468 v -0.883469 l 3.493801,0.0052 3.493803,0.0052 v 0.899749 0.89975 l 0.0448,0.01036 c 0.04785,0.01106 0.565558,0.05618 1.119808,0.09762 0.186137,0.01392 0.69677,0.02557 1.134739,0.02591 0.842496,6.44e-4 1.097016,-0.01913 1.409231,-0.109535 l 0.13514,-0.03913 0.03248,0.0647 c 0.01788,0.03557 0.479396,0.968064 1.025613,2.072174 l 0.993124,2.007475 -0.12555,0.1208 c -0.231463,0.222705 -0.716662,0.637913 -1.019707,0.87261 -2.129287,1.649057 -4.589774,2.589946 -7.277956,2.783084 -0.261125,0.01877 -1.362272,0.02334 -1.63243,0.0068 z"
     id="path7"
     sodipodi:nodetypes="csssscssscccccccssssccscssscc" /><path
     style="fill:none;fill-opacity:1;stroke:#634110;stroke-width:0.491062;stroke-opacity:1"
     d="M 24.141419,24.55523 21.973407,20.273711"
     id="path20"
     sodipodi:nodetypes="cc" /><path
     style="fill:none;fill-opacity:1;stroke:#634110;stroke-width:0.483423;stroke-opacity:1"
     d="M 7.5805007,20.419162 5.3953396,24.596364"
     id="path20-5"
     sodipodi:nodetypes="cc" /><g
     id="g7"
     transform="matrix(0.9939375,0,0,1.1364919,0.05776241,-2.7607485)"
     style="fill:none"><path
       style="fill:none;display:inline;fill-opacity:1;stroke:#a26a1a;stroke-width:0.231603;stroke-dasharray:none;stroke-opacity:1"
       d="M 7.0860079,12.77359 H 22.232937"
       id="path9"
       sodipodi:nodetypes="cc" /><path
       style="fill:none;stroke:#8a5a16;stroke-width:0.502004;stroke-dasharray:none;stroke-opacity:0.57232702"
       d="M 9.6294883,10.265776 20.153391,10.24174"
       id="path11" /><path
       style="display:inline;fill:none;stroke:#8a5a16;stroke-width:0.577017;stroke-dasharray:none;stroke-opacity:0.57232702"
       d="M 21.466755,11.500572 19.842778,10.031086 19.347248,6.4631647"
       id="path10-9"
       sodipodi:nodetypes="ccc" /><path
       style="display:inline;fill:none;stroke:#8a5a16;stroke-width:0.577017;stroke-dasharray:none;stroke-opacity:0.57232702"
       d="M 8.1519779,11.510443 9.7759549,10.040957 10.271485,6.4730358"
       id="path10-9-4"
       sodipodi:nodetypes="ccc" /><path
       style="display:inline;fill:none;fill-opacity:1;stroke:#885815;stroke-width:0.638606;stroke-dasharray:none;stroke-opacity:1"
       d="m 7.1857904,17.882439 c 0,0 -0.3991292,2.035556 0.1995636,2.394771 0.5986926,0.359216 3.472419,0.07982 3.472419,0.07982 v -2.155295 z"
       id="path2" /><path
       style="display:inline;fill:none;fill-opacity:1;stroke:#885815;stroke-width:0.638769;stroke-dasharray:none;stroke-opacity:1"
       d="m 22.133153,17.926044 c 0,0 0.39913,2.035557 -0.199563,2.394771 -0.598692,0.359216 -3.472419,0.07982 -3.472419,0.07982 v -2.155296 z"
       id="path2-7" /><path
       style="display:inline;fill:none;fill-opacity:0.666667;stroke:#d08821;stroke-width:0.617326;stroke-dasharray:none;stroke-opacity:1"
       d="m 8.4641615,11.296128 1.7598835,-4.4662006 9.279384,-5e-7 1.627345,4.4880031 z"
       id="path5"
       sodipodi:nodetypes="ccccc" /><path
       style="display:inline;fill:none;fill-opacity:1;stroke:#976218;stroke-width:0.32945;stroke-dasharray:none;stroke-opacity:1"
       d="M 10.47435,6.3766106 11.69009,5.555142 c 1.520129,-0.020132 3.976751,-0.0097 6.410285,0 l 1.124183,0.8254784 z"
       id="path5-9"
       sodipodi:nodetypes="ccccc" /><path
       style="display:inline;fill:none;fill-opacity:1;stroke:#9c6618;stroke-width:0.46320572;stroke-dasharray:none;stroke-opacity:1"
       d="m 6.998621,13.222616 c 0,0 1.4012509,-0.196482 1.9819176,0.121169 0.8190073,0.448033 1.4919474,2.461374 1.4919474,2.461374 l -3.473865,-0.038 z"
       id="path6"
       sodipodi:nodetypes="csccc" /><path
       style="display:inline;fill:none;fill-opacity:1;stroke:#9c6618;stroke-width:0.46320572;stroke-dasharray:none;stroke-opacity:1"
       d="m 22.18472,13.222616 c 0,0 -1.40125,-0.196482 -1.981917,0.121169 -0.819007,0.448033 -1.491948,2.461374 -1.491948,2.461374 l 3.473865,-0.038 z"
       id="path6-9"
       sodipodi:nodetypes="csccc" /><path
       style="fill:none;display:inline;fill-opacity:1;stroke:#d08821;stroke-width:0.638606;stroke-dasharray:none;stroke-opacity:1"
       d="m 6.9064001,17.842526 3.8715469,0.01996 0.598693,0.778302 6.745272,-3.19e-4 0.419085,-0.777982 3.731851,0.05987 c 0,0 0.621359,-3.745437 -0.05034,-5.470086 -0.177597,-0.455997 -0.997324,-1.148604 -0.997324,-1.148604 L 8.2761986,11.406866 c 0,0 -1.0528497,0.720675 -1.2870993,1.241961 -0.7233734,1.609754 -0.082699,5.193699 -0.082699,5.193699 z"
       id="path4"
       sodipodi:nodetypes="ccccccsccsc" /><rect
       style="display:inline;fill:none;fill-opacity:1;stroke:#9c6618;stroke-width:0.446994;stroke-dasharray:none;stroke-opacity:1"
       id="rect9"
       width="5.5678434"
       height="1.0377346"
       x="11.975333"
       y="16.46553" /></g><path
     style="fill:#333333;fill-opacity:1;stroke:#634110;stroke-width:0.855625;stroke-dasharray:none;stroke-opacity:1"
     d="m 14.643197,19.219473 c 0,1.129742 0,1.129742 0,1.129742"
     id="path3" /><path
     style="fill:#333333;fill-opacity:1;stroke:#634110;stroke-width:0.891777;stroke-dasharray:none;stroke-opacity:1"
     d="m 14.661273,21.690247 c 0,2.110602 0,2.110602 0,2.110602"
     id="path3-3" /><path
     style="fill:#333333;fill-opacity:1;stroke:#634110;stroke-width:0.839635;stroke-dasharray:none;stroke-opacity:1"
     d="m 14.635202,25.525539 c 0,2.748263 0,2.748263 0,2.748263"
     id="path3-4" /></svg>
