<?xml version="1.0" encoding="UTF-8" standalone="no"?>
<svg
   width="48"
   height="48"
   viewBox="0 0 29.538462 29.538462"
   version="1.1"
   id="svg3"
   sodipodi:docname="WaterOFFNight.svg"
   inkscape:version="1.4 (86a8ad7, 2024-10-11)"
   xml:space="preserve"
   xmlns:inkscape="http://www.inkscape.org/namespaces/inkscape"
   xmlns:sodipodi="http://sodipodi.sourceforge.net/DTD/sodipodi-0.dtd"
   xmlns:xlink="http://www.w3.org/1999/xlink"
   xmlns="http://www.w3.org/2000/svg"
   xmlns:svg="http://www.w3.org/2000/svg"><defs
     id="defs3"><linearGradient
       id="linearGradient42"
       inkscape:collect="always"><stop
         style="stop-color:#d08a27;stop-opacity:0;"
         offset="0"
         id="stop42" /><stop
         style="stop-color:#f19e2a;stop-opacity:0.28991598;"
         offset="1"
         id="stop43" /></linearGradient><linearGradient
       id="linearGradient40"
       inkscape:collect="always"><stop
         style="stop-color:#d08821;stop-opacity:1;"
         offset="0"
         id="stop39" /><stop
         style="stop-color:#ffffff;stop-opacity:0;"
         offset="1"
         id="stop40" /></linearGradient><linearGradient
       id="linearGradient37"
       inkscape:collect="always"><stop
         style="stop-color:#d08821;stop-opacity:1;"
         offset="0.3562341"
         id="stop36" /><stop
         style="stop-color:#a9d4e8;stop-opacity:0;"
         offset="1"
         id="stop37" /></linearGradient><linearGradient
       id="linearGradient33"
       inkscape:collect="always"><stop
         style="stop-color:#d08821;stop-opacity:1;"
         offset="0.3562341"
         id="stop32" /><stop
         style="stop-color:#ffffff;stop-opacity:0;"
         offset="1"
         id="stop33" /></linearGradient><linearGradient
       id="linearGradient30"
       inkscape:collect="always"><stop
         style="stop-color:#000000;stop-opacity:0;"
         offset="0.26972008"
         id="stop31" /><stop
         style="stop-color:#000000;stop-opacity:0.3277311;"
         offset="1"
         id="stop30" /></linearGradient><linearGradient
       id="linearGradient27"
       inkscape:collect="always"><stop
         style="stop-color:#000000;stop-opacity:0.35294119;"
         offset="0"
         id="stop27" /><stop
         style="stop-color:#000000;stop-opacity:0;"
         offset="0.71246821"
         id="stop28" /></linearGradient><linearGradient
       id="linearGradient24"
       inkscape:collect="always"><stop
         style="stop-color:#d08821;stop-opacity:1;"
         offset="0.3562341"
         id="stop23" /><stop
         style="stop-color:#a9d4e8;stop-opacity:0;"
         offset="1"
         id="stop24" /></linearGradient><linearGradient
       id="linearGradient16"
       inkscape:collect="always"><stop
         style="stop-color:#d08821;stop-opacity:1;"
         offset="0"
         id="stop16" /><stop
         style="stop-color:#ffffff;stop-opacity:0;"
         offset="1"
         id="stop17" /></linearGradient><clipPath
       clipPathUnits="userSpaceOnUse"
       id="clipPath8"><path
         id="path8"
         style="fill:#ff0000;fill-opacity:1;fill-rule:nonzero;stroke:none;stroke-width:0.615385"
         d="m -392.61538,-388.92308 v 800 h 800 v -800 z m 195.13341,379.6622628 c 0.98766,0.019477 1.94608,0.085448 2.86298,0.2055286 3.53409,0.4628388 4.26553,1.1354868 7.07092,2.6610578 2.33021,1.693337 3.2503,2.1851155 5.23798,4.4134616 3.82824,4.2917917 5.85447,9.7432418 7.59495,15.1274032 3.42148,12.587248 4.77105,25.524674 5.85697,38.500001 1.58846,17.263107 3.45183,34.531568 3.39423,51.893025 -0.10772,2.9333 -0.13224,5.87022 -0.32332,8.79928 -0.87662,13.43734 -3.7338,26.65395 -6.01202,39.89303 -1.60656,8.28125 -3.10621,16.60818 -5.30649,24.75962 -1.16861,4.32936 -2.24959,8.19173 -4.4375,12.11778 -0.78462,1.40792 -1.86464,2.62987 -2.79687,3.94472 -1.07258,1.00245 -2.04043,2.12988 -3.21755,3.00721 -5.15748,3.84397 -11.60825,4.13594 -17.77885,4.30528 -11.66545,0.38767 -23.33312,0.14038 -35.0024,0.0469 -14.98376,-0.16309 -29.96832,-0.36876 -44.94592,-0.84976 -9.77382,-0.2893 -19.55055,-0.38635 -29.32091,-0.76563 -7.8651,-0.43912 -15.76872,-0.99161 -23.44832,-2.85817 -7.9351,-2.38047 -15.26281,-5.90383 -19.59615,-13.35937 -0.64108,-1.33185 -1.38753,-2.61752 -1.92308,-3.9952 -3.51363,-9.03865 -2.91477,-19.14491 -3.47235,-28.62379 -0.0907,-15.21027 0.13161,-30.42462 0.70072,-45.62501 0.62718,-13.464082 1.49382,-26.912427 2.37741,-40.361775 0.45369,-10.81738 0.67076,-21.637776 0.55288,-32.465141 V 16.536058 c 0,-12.9855077 13.11659,-12.9855077 13.11659,0 v 14.973557 c 0.11973,11.010066 -0.10512,22.013246 -0.56371,33.013222 -0.87754,13.470492 -1.75226,26.939434 -2.3798,40.424273 -0.55556,14.97069 -0.7787,29.95479 -0.6863,44.9351 0.64995,8.81774 -0.50578,18.74931 3.97716,26.76683 2.67044,3.93222 7.18333,5.47434 11.56731,6.69831 6.73092,1.52162 13.63501,1.9742 20.50601,2.35457 9.65727,0.36422 19.32035,0.4653 28.98077,0.75121 14.89582,0.47857 29.79874,0.68161 44.70072,0.84374 11.4756,0.0847 22.95009,0.34435 34.42187,-0.0409 3.26461,-0.40843 7.23298,0.30245 10.25,-1.43149 0.55695,-0.32008 1.60408,-1.68093 1.91346,-2.05048 0.39188,-0.65811 0.85297,-1.28003 1.17548,-1.97475 1.18826,-2.55966 2.05604,-5.86025 2.73919,-8.49039 2.02161,-7.78328 3.48985,-15.68348 5.01923,-23.57332 2.18847,-12.8293 5.00597,-25.63127 5.83293,-38.65264 0.16926,-2.66519 0.18003,-5.33818 0.27043,-8.00721 0.003,-16.804259 -1.80968,-33.516905 -3.34735,-50.227166 -1.09715,-12.188746 -2.15471,-24.40448 -5.44351,-36.227164 -1.67723,-5.172328 -3.07268,-9.2588671 -7.71514,-12.27524 -0.42486,-0.1998396 -0.81992,-0.485211 -1.27525,-0.5997596 -1.35526,-0.3409576 -7.19627,0.6820402 -7.83173,0.7776442 -2.97793,0.4480323 -9.82439,1.7484034 -12.54567,2.2536059 -17.52083,3.6873855 -35.08478,6.9811475 -52.82572,9.4122595 -14.40364,1.895548 -28.86401,3.3694 -43.39784,3.46875 -7.54745,0.009 -15.08078,-0.512229 -22.59615,-1.152645 -12.93862,-1.10255 -11.81871,-14.1829455 1.11899,-13.0697108 7.11663,0.6123559 14.25054,1.1058373 21.39783,1.1045672 13.96517,-0.071367 27.85767,-1.5492708 41.69832,-3.3461537 17.53655,-2.39774188 34.89206,-5.6759411 52.21154,-9.3137019 6.33609,-1.1750423 14.72943,-3.2781776 21.64303,-3.1418269 z" /></clipPath><linearGradient
       inkscape:collect="always"
       xlink:href="#linearGradient16"
       id="linearGradient17"
       x1="11.222051"
       y1="22.222317"
       x2="11.222051"
       y2="15.414383"
       gradientUnits="userSpaceOnUse"
       gradientTransform="matrix(1.1894608,0,0,1.1894608,-1.8419211,-5.446213)" /><linearGradient
       inkscape:collect="always"
       xlink:href="#linearGradient40"
       id="linearGradient18"
       gradientUnits="userSpaceOnUse"
       gradientTransform="matrix(-1.1416602,0,0,1.1416602,31.265582,-4.0188423)"
       x1="11.222051"
       y1="22.222317"
       x2="11.222051"
       y2="15.414383" /><linearGradient
       inkscape:collect="always"
       xlink:href="#linearGradient37"
       id="linearGradient19"
       gradientUnits="userSpaceOnUse"
       gradientTransform="matrix(0.69387852,-0.04527839,0.01422862,1.2815478,5.4708005,-6.0777208)"
       x1="11.222051"
       y1="22.222317"
       x2="11.222051"
       y2="15.414383" /><linearGradient
       inkscape:collect="always"
       xlink:href="#linearGradient24"
       id="linearGradient25"
       gradientUnits="userSpaceOnUse"
       gradientTransform="matrix(-0.69387852,-0.04527839,-0.01422862,1.2815478,24.937436,-5.9346515)"
       x1="11.222051"
       y1="22.222317"
       x2="11.222051"
       y2="15.414383" /><linearGradient
       inkscape:collect="always"
       xlink:href="#linearGradient33"
       id="linearGradient26"
       gradientUnits="userSpaceOnUse"
       gradientTransform="matrix(-0.34654641,-0.12965045,-0.08958959,1.2392135,20.945211,-3.3185885)"
       x1="11.222051"
       y1="22.222317"
       x2="11.222051"
       y2="15.414383" /><linearGradient
       inkscape:collect="always"
       xlink:href="#linearGradient27"
       id="linearGradient28"
       x1="10.803197"
       y1="18.576849"
       x2="10.803197"
       y2="8.5880651"
       gradientUnits="userSpaceOnUse" /><linearGradient
       inkscape:collect="always"
       xlink:href="#linearGradient30"
       id="linearGradient31"
       x1="18.947456"
       y1="9.5438919"
       x2="18.947456"
       y2="18.232359"
       gradientUnits="userSpaceOnUse" /><linearGradient
       inkscape:collect="always"
       xlink:href="#linearGradient42"
       id="linearGradient43"
       x1="14.77079"
       y1="5.3255057"
       x2="14.77079"
       y2="24.268673"
       gradientUnits="userSpaceOnUse" /><filter
       inkscape:collect="always"
       style="color-interpolation-filters:sRGB"
       id="filter1"
       x="-0.07357017"
       y="-0.073570175"
       width="1.1471403"
       height="1.1471403"><feGaussianBlur
         inkscape:collect="always"
         stdDeviation="0.6797283"
         id="feGaussianBlur1" /></filter></defs><sodipodi:namedview
     id="namedview3"
     pagecolor="#ffffff"
     bordercolor="#111111"
     borderopacity="1"
     inkscape:showpageshadow="0"
     inkscape:pageopacity="0"
     inkscape:pagecheckerboard="1"
     inkscape:deskcolor="#d1d1d1"
     inkscape:zoom="11.713917"
     inkscape:cx="10.158857"
     inkscape:cy="18.524974"
     inkscape:window-width="1920"
     inkscape:window-height="1056"
     inkscape:window-x="-8"
     inkscape:window-y="-8"
     inkscape:window-maximized="1"
     inkscape:current-layer="svg3"
     showgrid="false"
     showguides="true" /><g
     id="g40"
     style="display:inline;fill:#799d00;fill-opacity:1;stroke:#333333;stroke-opacity:1"
     transform="matrix(1.5448214,0,0,1.8871675,-7.015737,-26.341281)"><g
       id="g36-10-3-9-0-4"
       transform="matrix(0.89547952,0,0,0.99654446,7.0681625,4.0376568)"
       style="display:inline;fill:#799d00;fill-opacity:1;stroke:#333333;stroke-opacity:1"><path
         id="path34-68-7-9-81-5"
         style="fill:#a66d1d;fill-opacity:0.73725492;stroke:#8f5c13;stroke-width:0.0461539;stroke-dasharray:none;stroke-opacity:1"
         d="m 10.49311,10.438383 c 0.0133,0.107796 0.02135,0.220354 0.01825,0.331693 -0.07289,0.515508 -0.197128,0.718267 -0.448324,0.924141 L 9.4504947,12.0617 c 0,0 0.4887352,-0.169565 0.9374843,-0.0064 0.44874,0.163169 0.767905,0.142086 1.18945,-0.02109 0.314759,-0.121845 0.810202,-0.02268 0.9566,0.01278 -0.210298,-0.06498 -0.76028,-0.559163 -0.907944,-0.787372 -0.06499,-0.100443 -0.07899,-0.277147 -0.07733,-0.477409 -0.356199,-0.107344 -0.70682,-0.224204 -1.055647,-0.343836 z m 2.043525,1.609257 c 0.0019,5.77e-4 0.0042,0.0021 0.0061,0.0026 0.05099,0.0136 0.04191,0.0091 -0.0061,-0.0026 z" /></g><g
       id="g36-10-3-9-0-6"
       transform="matrix(1.3172178,0,0,1.4658807,3.4038815,0.22959944)"
       style="display:inline;fill:#799d00;fill-opacity:1;stroke:#333333;stroke-opacity:1"><path
         id="path34-68-7-9-81-53"
         style="fill:#a66d1d;fill-opacity:0.73725492;stroke:#8f5c13;stroke-width:0.0664293;stroke-dasharray:none;stroke-opacity:1"
         d="m 10.251439,9.6555039 c 0.03918,0.054993 0.06883,0.1405075 0.144122,0.264597 0.04152,0.1919301 0.12477,0.5267191 0.11577,0.8498391 -0.07289,0.515508 -0.197709,0.718694 -0.448905,0.924568 l -0.6113377,0.367134 c 0,0 0.4880439,-0.1697 0.9367937,-0.0065 0.44874,0.163169 0.768053,0.142323 1.189598,-0.02086 0.314245,-0.121647 0.808398,-0.02345 0.955695,0.01217 -0.210846,-0.06591 -0.759178,-0.559332 -0.90667,-0.787273 -0.146269,-0.226053 -0.0725,-0.794699 -0.09311,-1.215457 -0.149095,0.02234 0.0181,0.04458 0.01101,0.04318 -0.361373,-0.06745 -0.707066,-0.2517667 -1.051383,-0.3552995 -0.0812,-0.02418 -0.161159,-0.050523 -0.241581,-0.076034 z m 2.281736,2.3909311 c 0.003,9.34e-4 0.0066,0.0027 0.0095,0.0035 0.05192,0.01384 0.04084,0.0087 -0.0095,-0.0035 z"
         sodipodi:nodetypes="ccccccscscccccccc" /></g><g
       id="g36-10-3-9-0-6-6-7-5-7"
       transform="matrix(1.007368,0,0,1.1210608,2.99696,-3.9518791)"
       style="display:inline;opacity:0.20802;fill:#799d00;fill-opacity:1;stroke:#333333;stroke-opacity:1"><g
         id="g36-10-3-9-0-6-6-7-5-4"
         transform="translate(3.0703129,0.24545189)"
         style="display:inline;opacity:0.368876;fill:#799d00;fill-opacity:1;stroke:#333333;stroke-opacity:1" /></g><g
       id="g36-10-3-9-0-2"
       transform="matrix(1.7035231,0,0,1.8957849,1.4518866,-2.4655735)"
       style="display:inline;opacity:1;fill:#799d00;fill-opacity:1;stroke:#333333;stroke-opacity:1"><path
         id="path34-68-7-9-81-6"
         style="fill:#a66d1d;fill-opacity:0.73725492;stroke:#8f5c13;stroke-width:0.0804722;stroke-dasharray:none;stroke-opacity:1"
         d="m 9.6687099,9.1290985 c 0.05755,0.1024314 0.1273917,0.2060862 0.2233357,0.3131072 0.1246504,0.028953 0.1242634,0.1298574 0.2489134,0.3352801 0.04152,0.19193 0.12455,0.5268382 0.11555,0.8499582 -0.07289,0.515508 -0.197304,0.718666 -0.4485004,0.92454 L 9.1960041,11.91918 c 0,0 0.4884385,-0.16994 0.9371899,-0.0067 0.44874,0.163169 0.768212,0.142351 1.189757,-0.02083 0.298348,-0.115493 0.753782,-0.03304 0.925772,0.006 -3.88e-4,-0.0016 -9.22e-4,-0.0031 -0.0014,-0.0047 -0.229472,-0.09936 -0.734893,-0.558696 -0.875533,-0.776049 -0.117185,-0.181103 -0.07244,-0.6035 -0.06029,-0.980979 -0.09493,-0.09775 -0.191668,-0.1944322 -0.295041,-0.2875754 -0.130046,-0.11131 -0.26915,-0.2160179 -0.409222,-0.3204981 -0.04333,-0.03138 -0.08709,-0.062478 -0.130622,-0.093731 -0.02846,-0.014696 -0.05852,-0.027475 -0.0886,-0.040314 -0.06542,-0.027919 -0.130611,-0.055739 -0.194106,-0.086004 -0.07328,-0.035744 -0.145083,-0.073159 -0.2146584,-0.1125439 -0.02847,-0.00583 -0.0569,-0.011721 -0.08541,-0.01747 -0.07598,-0.014181 -0.150755,-0.030961 -0.2251627,-0.048713 z" /></g><g
       id="g36-10-3-9-0-2-8"
       transform="matrix(2.1513626,0,0,2.3941681,-0.5833861,-5.6007558)"
       style="display:inline;fill:#799d00;fill-opacity:1;stroke:#333333;stroke-width:0.0780917;stroke-dasharray:none;stroke-opacity:1"><path
         id="path35-99-3-8-7-4-2"
         style="opacity:1;fill:#c98525;fill-opacity:1;stroke:#8f5c13;stroke-width:0.07940323;stroke-dasharray:none;stroke-opacity:1"
         d="m 8.130877,8.440449 0.022784,0.030592 0.3370549,0.1250287 c 0,0 0.057381,0.3269365 0.4227653,0.3269365 0.3653815,0 0.4133624,-0.1346053 0.4133624,-0.1346053 l 0.094752,0.05214 c -0.022607,-0.016183 -0.045049,-0.032481 -0.067628,-0.048681 -0.00558,-0.0026 -0.011454,-0.00481 -0.016997,-0.00745 C 9.3012733,8.7669991 9.2660761,8.7490844 9.2313686,8.730675 9.1650786,8.7169846 9.0988783,8.703104 9.0324628,8.6897082 8.8112043,8.6484103 8.5995468,8.5849748 8.3887313,8.5215846 8.3020613,8.4957763 8.2162246,8.4684971 8.130877,8.440449 Z m 1.4191026,0.4924 0.1891413,0.348016 0.1471903,-0.088648 C 9.7933532,9.1147669 9.6960384,9.0405074 9.5973553,8.9668993 9.5816263,8.9555093 9.5657674,8.9442014 9.5499796,8.932849 Z"
         sodipodi:nodetypes="cccsccccccccccccc" /><path
         id="path34-68-7-9-81-6-1"
         style="fill:#a66d1d;fill-opacity:0.73725492;stroke:#8f5c13;stroke-width:0.0780917;stroke-dasharray:none;stroke-opacity:1"
         d="m 9.8776317,9.1853004 c 0.065238,0.1308041 0.1464253,0.2620904 0.2694273,0.3992935 0.12465,0.028953 0.124163,0.1300265 0.248813,0.3354492 0.04152,0.1919299 0.124727,0.5268089 0.115727,0.8499289 -0.07289,0.515508 -0.197608,0.718805 -0.448804,0.924679 l -0.6119067,0.367106 c 0,0 0.488638,-0.17 0.9373887,-0.0069 0.259785,0.09446 0.475743,0.127071 0.693639,0.106142 -0.0096,-0.04833 -0.01507,-0.100139 -0.01483,-0.156153 9.1e-5,-0.02146 1.45e-4,-0.04292 3.62e-4,-0.06438 5.42e-4,-0.04427 0.0012,-0.08848 0.0025,-0.132743 0.0019,-0.06038 0.0044,-0.120809 0.0076,-0.181158 0.0013,-0.02789 0.0013,-0.05585 0.0014,-0.0838 -0.0229,-0.08103 -0.0451,-0.162386 -0.0575,-0.244737 -0.0096,-0.05762 -0.02899,-0.113448 -0.0481,-0.16972 -0.02742,-0.09161 -0.05355,-0.18326 -0.07414,-0.275861 -0.03426,-0.138065 -0.06349,-0.276738 -0.100176,-0.414456 -0.04388,-0.133617 -0.09912,-0.264966 -0.167804,-0.392909 C 10.589896,9.9695602 10.552192,9.8923806 10.493155,9.8229464 10.432777,9.7461169 10.36691,9.6715775 10.298589,9.5984269 10.178228,9.4696217 10.055856,9.3418377 9.921391,9.2206808 9.9072538,9.2085803 9.8920227,9.1972166 9.8776317,9.1853004 Z" /></g></g><g
     id="g39"
     style="display:inline;stroke:#8f5c13;stroke-opacity:1"
     transform="matrix(1.4112554,0,0,1.767842,-6.2941573,-24.16565)"><g
       id="g36-10-3-9-0-4-3"
       transform="matrix(-0.90320435,0,0,1.0051411,22.459206,3.6006325)"
       style="display:inline;opacity:0.48415;stroke:#8f5c13;stroke-opacity:1"><path
         id="path34-68-7-9-81-5-8"
         style="fill:#835300;fill-opacity:1;stroke:#333333;stroke-width:0.0461539;stroke-dasharray:none;stroke-opacity:1"
         d="m 10.501606,10.520011 c 0.255819,0.0034 0.511651,0.0065 0.767555,0.0115 0.04761,0.0013 0.09566,0.0024 0.143327,0.0034 0.03207,0.02996 0.07056,0.05621 0.107496,0.0832 0.01042,0.0076 0.02231,0.01421 0.033,0.02165 -0.0094,0.257725 -0.0064,0.496011 0.07355,0.619586 0.147664,0.22821 0.696812,0.722359 0.90711,0.787335 -0.146377,-0.03546 -0.641373,-0.134708 -0.956143,-0.01285 -0.421545,0.163178 -0.74031,0.184138 -1.18905,0.02097 -0.4487506,-0.163183 -0.9372845,0.0074 -0.9372845,0.0074 v -6.76e-4 l 0.6110265,-0.367288 c 0.251196,-0.205874 0.375951,-0.40846 0.44884,-0.923968 0.0023,-0.08337 -0.0017,-0.167993 -0.0094,-0.250269 z m 2.034869,1.52732 c 0.04797,0.01168 0.05765,0.01638 0.0066,0.0027 -0.0019,-5.01e-4 -0.0047,-0.0022 -0.0066,-0.0027 z" /></g><g
       id="g36-10-3-9-0-6-5"
       transform="matrix(-1.3172178,0,0,1.4658807,25.45266,0.48409843)"
       style="display:inline;opacity:1;stroke:#333333;stroke-opacity:1"><path
         id="path34-68-7-9-81-53-6"
         style="display:inline;fill:#a66d1d;fill-opacity:0.70063692;stroke:#8f5c13;stroke-width:0.0664293;stroke-dasharray:none;stroke-opacity:1"
         d="m 9.9673916,9.3469457 c 0.01083,2.076e-4 0.021496,2.537e-4 0.032328,4.638e-4 0.032723,9.307e-4 0.065537,0.00151 0.098278,0.00232 0.02199,0.020541 0.04838,0.038541 0.07371,0.057048 0.06507,0.047551 0.138257,0.08967 0.210134,0.1317204 0.06596,0.038136 0.1308,0.07807 0.202375,0.1108492 0.02606,0.011933 0.0531,0.022813 0.07953,0.034322 0.147426,0.060427 0.311467,0.091563 0.475227,0.1196615 0.101858,0.016809 0.20487,0.029193 0.307766,0.042206 0.03967,0.0068 0.08285,0.01017 0.120908,0.021799 -0.004,0.031562 -0.0055,0.06837 -0.0026,0.113632 0.02719,0.4215454 -0.08816,1.0470754 0.06142,1.2782444 0.147361,0.227741 0.694587,0.720939 0.905841,0.78754 -0.148276,-0.03577 -0.641298,-0.134416 -0.95498,-0.01299 -0.421545,0.163178 -0.740943,0.184502 -1.189683,0.02133 -0.448751,-0.163183 -0.9368761,0.0065 -0.9368761,0.0065 l 0.6116531,-0.366869 c 0.251196,-0.205874 0.375828,-0.409781 0.448717,-0.925289 0.009,-0.32312 -0.07421,-0.657759 -0.115735,-0.8496895 C 10.270833,9.7143551 10.271787,9.6138304 10.147137,9.5848772 10.074628,9.5039966 10.016367,9.4248605 9.9673916,9.3469457 Z M 12.532323,12.04675 c 0.05099,0.0123 0.06189,0.01711 0.0097,0.0032 -0.003,-8.06e-4 -0.0066,-0.0022 -0.0097,-0.0032 z" /></g><g
       id="g36-10-3-9-0-2-3"
       transform="matrix(-1.7035231,0,0,1.8957849,27.131546,-2.0172897)"
       style="display:inline;opacity:0.992481;fill:#526b00;fill-opacity:1;stroke:#333333;stroke-opacity:1"><path
         id="path35-99-3-8-7-4-6"
         style="fill:#526b00;fill-opacity:1;stroke:#333333;stroke-width:0.0307692;stroke-dasharray:none;stroke-opacity:1"
         d="m 8.3436769,8.5414211 c 0.1246683,0.00175 0.2492426,0.00332 0.3739596,0.00574 0.025285,7.198e-4 0.050695,0.00118 0.075992,0.00179 0.017003,0.015883 0.037411,0.029801 0.056994,0.044111 0.050315,0.036768 0.106905,0.069336 0.1624824,0.1018503 0.051004,0.029488 0.1011388,0.060366 0.1564831,0.085712 0.020148,0.00923 0.04106,0.01764 0.061493,0.026539 0.020542,0.00842 0.041693,0.015526 0.062993,0.022593 -0.04541,0.039618 -0.1497407,0.093602 -0.3809587,0.093602 -0.3653846,0 -0.4229543,-0.3270687 -0.4229543,-0.3270687 z m 1.1508756,0.3392621 c 0.034454,0.00672 0.069299,0.013055 0.1039887,0.019007 0.07876,0.012997 0.158412,0.022573 0.2379743,0.032635 0.031832,0.00546 0.066787,0.0077 0.096989,0.017573 0.043318,0.0097 0.084286,0.023174 0.125986,0.035863 0.0638,0.016225 0.123271,0.039428 0.18398,0.060608 0.06058,0.021827 0.120042,0.045126 0.179481,0.068498 0.07068,0.02969 0.139893,0.061046 0.209977,0.09145 0.07363,0.030942 0.144075,0.064851 0.211977,0.1018504 0.02268,0.012497 0.04442,0.025921 0.06599,0.039449 L 9.739026,9.1697374 9.5195498,8.8943111 Z" /><path
         id="path34-68-7-9-81-6-4"
         style="opacity:1;fill:#a66d1d;fill-opacity:0.70063692;stroke:#8f5c13;stroke-width:0.0804722;stroke-dasharray:none;stroke-opacity:1"
         d="m 9.7610236,8.9230013 c 0.025106,0.0032 0.050373,0.00615 0.075492,0.00932 0.031832,0.00546 0.066787,0.0077 0.096989,0.017573 0.043318,0.0097 0.084286,0.023174 0.125986,0.035863 0.0638,0.016225 0.123271,0.039428 0.18398,0.060608 0.01453,0.00523 0.02858,0.011112 0.043,0.016497 l 0.191979,0.3887528 c 0.132152,0.066408 0.209976,0.024678 0.252473,-0.088223 l -0.017,-0.120499 c 0.04458,0.02074 0.08855,0.042145 0.130985,0.06527 0.05426,0.0299 0.104755,0.063481 0.153984,0.097547 l 0.0055,0.037656 c 0.01386,0.00131 0.02744,3.343e-4 0.041,-0.00179 0.03727,0.028984 0.07451,0.057972 0.110988,0.087505 0.05421,0.044812 0.10625,0.090817 0.159982,0.13592 0.05954,0.05047 0.124619,0.098086 0.177481,0.1524169 0.02383,0.026662 0.04709,0.053473 0.07099,0.079974 -0.0013,0.024894 -0.0015,0.051825 5e-4,0.08356 0.02719,0.4215451 -0.08809,1.0473401 0.06149,1.2785091 0.147743,0.228331 0.697355,0.722995 0.907402,0.787547 -0.146521,-0.03548 -0.642209,-0.134723 -0.956897,-0.01291 -0.421545,0.163178 -0.740631,0.183967 -1.189371,0.0208 -0.4487496,-0.163183 -0.9368988,0.0068 -0.9368988,0.0068 l 0.6119338,-0.367235 c 0.251196,-0.205874 0.375562,-0.409035 0.448451,-0.924543 0.009,-0.32312 -0.07397,-0.658018 -0.115487,-0.8499479 C 10.271291,9.7146064 10.271632,9.6136231 10.146982,9.5846699 9.9424133,9.3564824 9.8504621,9.143177 9.7610236,8.9230013 Z M 12.534224,12.04701 c 0.04975,0.01205 0.05975,0.0167 0.008,0.0029 -0.0025,-6.68e-4 -0.0054,-0.0021 -0.008,-0.0029 z" /></g><g
       id="g36-10-3-9-0-2-83-9"
       transform="matrix(-1.5103226,0,0,1.6807796,21.579516,-1.8200912)"
       style="display:inline;opacity:0.689223;stroke:#8f5c13;stroke-opacity:1"><path
         id="path34-68-7-9-81-6-3-4"
         style="fill:#835300;fill-opacity:1;stroke:#333333;stroke-width:0.0461539;stroke-dasharray:none;stroke-opacity:1"
         d="m 10.065689,11.692135 c 0.01085,0.01828 0.02116,0.03671 0.03214,0.05501 0.05067,0.08446 0.109026,0.155389 0.171426,0.215196 0.01391,0.0229 0.02768,0.0459 0.04173,0.06877 -0.4259497,-0.119837 -0.8599459,0.03074 -0.8599459,0.03074 L 10.06287,11.694562 c 9.78e-4,-8.04e-4 0.0019,-0.0016 0.0028,-0.0024 z" /></g><path
       id="path35-99-3-8-7-4-2-5"
       style="display:inline;opacity:0.90778098;fill:#c98525;fill-opacity:1;stroke:#8f5c13;stroke-width:0.08583373;stroke-dasharray:none;stroke-opacity:1"
       transform="matrix(-2.1513626,0,0,2.3941681,30.92251,-4.909071)"
       d="m 7.9409932,7.9678281 c 0.080533,-8.72e-5 0.160967,1.66e-4 0.2414834,8.52e-4 0.1610329,0.00138 0.3215979,0.00398 0.4825709,0.0071 0.020021,5.7e-4 0.040142,9.343e-4 0.060173,0.00142 0.013464,0.012577 0.029623,0.023598 0.04513,0.034929 0.039841,0.029114 0.084651,0.054902 0.1286592,0.080649 0.040387,0.02335 0.080085,0.0478 0.1239087,0.06787 0.015954,0.00731 0.032513,0.013968 0.048692,0.021014 0.090264,0.036998 0.1907022,0.056061 0.2909678,0.073265 0.062365,0.010291 0.125436,0.017874 0.1884362,0.025842 0.025206,0.00432 0.052884,0.0061 0.0768,0.013915 0.034301,0.00768 0.06674,0.01835 0.09976,0.028397 0.05052,0.012848 0.09761,0.031221 0.1456818,0.047992 0.047973,0.017283 0.095053,0.035732 0.1421187,0.054239 0.05597,0.02351 0.110772,0.048339 0.166267,0.072413 0.0583,0.024501 0.114084,0.051351 0.167851,0.080649 0.04467,0.024614 0.08625,0.052288 0.12668,0.080365 0.04079,0.031026 0.08052,0.062647 0.11995,0.094563 0.04292,0.035483 0.08413,0.071912 0.12668,0.1076262 0.04714,0.039964 0.09868,0.077668 0.140535,0.1206889 0.03846,0.043021 0.07566,0.086219 0.117179,0.1277884 0.05396,0.049582 0.115252,0.094836 0.17656,0.1397152 0.04461,0.032602 0.09277,0.062624 0.139744,0.093427 0.0088,0.00593 0.01749,0.011873 0.02613,0.01789 -0.0015,-0.00113 2.1e-5,4e-4 0.0055,0.00625 0.01251,0.015793 0.02237,0.032578 0.03207,0.049411 L 9.7394507,9.1698901 9.5189487,8.8938674 9.3269496,8.788513 c 0,0 -0.047911,0.1346037 -0.4132929,0.1346037 -0.3653846,0 -0.4231898,-0.3268541 -0.4231898,-0.3268541 L 8.1539736,8.4713141 7.9809765,8.2401592 7.7212829,8.2790636 7.5965824,7.9712358 c 0.03423,-5.099e-4 0.068345,-0.00118 0.1025315,-0.0017 0.080513,-0.00113 0.1613466,-0.00162 0.2418793,-0.0017 z" /><path
       id="path34-68-7-9-81-6-1-9"
       style="display:inline;fill:#a66d1d;fill-opacity:0.70063692;stroke:#8f5c13;stroke-width:0.0780917;stroke-dasharray:none;stroke-opacity:1"
       transform="matrix(-2.1513626,0,0,2.3941681,30.92251,-4.909071)"
       d="m 9.0098541,8.1538311 c 0.00445,0.00217 0.00853,0.00474 0.013064,0.00682 0.015954,0.00731 0.032513,0.013968 0.048692,0.021014 0.090264,0.036998 0.1907022,0.056061 0.2909678,0.073265 0.038999,0.00644 0.078214,0.011681 0.1175747,0.016754 l 0.01148,0.050547 L 10.014979,8.8299732 9.8502956,8.362836 c 0.00764,0.00273 0.015284,0.00556 0.022961,0.00824 0.047973,0.017283 0.095053,0.035732 0.1421187,0.054239 0.0024,0.00101 0.0047,0.00211 0.0071,0.00312 l 0.216939,0.5395506 0.239108,0.4836077 c 0.132152,0.066408 0.209674,0.024585 0.252172,-0.088316 l -0.129055,-0.579307 c 0.01218,0.00634 0.02723,0.010046 0.04434,0.011643 0.02551,0.02182 0.05099,0.04365 0.0768,0.065314 0.04714,0.039964 0.09868,0.077668 0.140535,0.1206889 0.02899,0.032432 0.05793,0.064691 0.08788,0.096551 l 0.05265,0.3651906 c 0.08402,0.00794 0.162999,-0.049207 0.235149,-0.1382954 0.01922,0.012525 0.03865,0.024928 0.0578,0.037485 0.0088,0.00593 0.01749,0.011873 0.02613,0.01789 -0.0015,-0.00113 2.1e-5,4e-4 0.0055,0.00625 0.01618,0.020419 0.02834,0.04246 0.04078,0.064178 0.02041,0.035624 0.04132,0.070828 0.06255,0.1062063 0.03608,0.060138 0.07781,0.1104366 0.122325,0.152778 0.01474,0.024387 0.02839,0.049003 0.04355,0.073265 -0.02535,0.043843 -0.03944,0.109832 -0.03246,0.2180921 0.02719,0.4215461 -0.08862,1.0469981 0.06096,1.2781671 0.05528,0.08544 0.301981,0.190669 0.431107,0.314359 -0.01137,0.02521 0.15649,0.03024 0.05463,0.05424 0.209458,0.01041 0.0057,0.06091 -0.01781,0.09655 -0.09383,0.14195 -0.04524,-0.202473 -0.15162,0.06986 -0.01858,0.04258 -0.03477,0.08554 -0.05226,0.128356 -0.0076,0.01843 -0.01408,0.03707 -0.02059,0.05566 -0.103773,0.0058 -0.204941,0.0219 -0.292155,0.05566 -0.421545,0.163178 -0.740467,0.184183 -1.189207,0.02101 -0.4487512,-0.163183 -0.9374307,0.0065 -0.9374307,0.0065 l 0.6116257,-0.367178 c 0.251196,-0.205874 0.376033,-0.409111 0.448922,-0.924619 0.009,-0.32312 -0.07408,-0.658004 -0.115595,-0.8499345 C 10.271007,9.7147228 10.271455,9.6134454 10.146805,9.5844922 9.872515,9.2785327 9.8024293,9.001329 9.6670057,8.6953695 L 9.022918,8.2075022 Z m 1.5918109,0.6301383 c -0.02054,-0.010697 -0.03249,-0.028234 -0.03246,-0.051967 0.0084,0.00674 0.01696,0.013387 0.02534,0.020162 z m 1.353099,2.9999016 c 0.03058,0.0061 0.05559,0.02849 0.0768,0.06105 -0.0038,0.01314 -0.0083,0.02605 -0.01227,0.03919 -0.09435,-0.0107 -0.06093,-0.09988 -0.06453,-0.100243 z" /><path
       id="path36-34-4-7-5-1-1-6"
       style="display:inline;opacity:1;fill:#c98525;fill-opacity:1;stroke:#8f5c13;stroke-width:0.08583373;stroke-dasharray:none;stroke-opacity:1"
       transform="matrix(-2.1513626,0,0,2.3941681,30.92251,-4.909071)"
       d="m 8.1824766,7.9686801 c 0.1610329,0.00138 0.3215979,0.00398 0.4825709,0.0071 0.020021,5.7e-4 0.040142,9.343e-4 0.060173,0.00142 0.013464,0.012577 0.029623,0.023598 0.04513,0.034929 0.039841,0.029114 0.084651,0.054902 0.1286592,0.080649 0.040387,0.02335 0.080085,0.0478 0.1239087,0.06787 0.015954,0.00731 0.032513,0.013968 0.048692,0.021014 0.090264,0.036998 0.1907022,0.056061 0.2909678,0.073265 0.062365,0.010291 0.125436,0.017874 0.1884362,0.025842 0.025206,0.00432 0.052884,0.0061 0.0768,0.013915 0.034301,0.00768 0.06674,0.01835 0.09976,0.028397 0.00455,0.00116 0.00896,0.00245 0.01346,0.00369 0.2312231,0.1093019 0.4398296,0.2474876 0.6880296,0.3365092 0.02562,0.036293 0.06637,0.044271 0.111637,0.046288 0.01843,0.014598 0.0372,0.028978 0.05542,0.043732 0.04292,0.035483 0.08413,0.071912 0.12668,0.1076262 0.0013,0.00107 0.0027,0.00205 0.004,0.00312 -0.106116,0.016847 -0.240383,0.058059 -0.330951,0.1584575 -0.329998,0.2181469 -0.7185069,-0.04167 -0.7185069,-0.04167 L 9.158307,8.6212523 8.7367008,8.4852288 8.0839039,8.1180504 8.1357634,7.9686801 c 0.01555,1.08e-4 0.031165,-1.329e-4 0.046713,0 z m 2.6788824,1.0112314 c 5.92e-4,6.031e-4 0.0014,0.0011 0.002,0.0017 0.03846,0.043021 0.07566,0.086219 0.117179,0.1277884 0.0036,0.0033 0.0074,0.00639 0.01108,0.00966 -0.08757,0.022941 -0.146977,-0.011298 -0.130243,-0.1391473 z"
       sodipodi:nodetypes="cccccccccccccccccccccccccccccc" /><g
       id="g36-10-3-9-0-2-8-0"
       transform="matrix(-2.1513626,0,0,2.3941681,30.92251,-4.909071)"
       style="display:inline;fill:none;fill-opacity:1;stroke:#8f5c13;stroke-width:0.0780917;stroke-dasharray:none;stroke-opacity:1" /></g><path
     id="path40"
     style="display:inline;fill:url(#linearGradient43);fill-opacity:0.27070063;stroke:#d08821;stroke-width:0.616942;stroke-dasharray:none;stroke-opacity:1"
     d="m 15.689574,0.54870714 c -0.04839,0.0102694 -0.09696,0.0207849 -0.146248,0.0265754 -0.336142,0.0394888 -0.58478,0.0350318 -0.762926,-0.003625 -0.193436,0.79387526 -0.608927,1.76037216 -0.784863,3.01631156 -0.507939,3.6259687 -0.691128,4.0751862 -2.188839,5.3923968 -0.984991,0.8662822 -1.423204,1.4743581 -1.555101,2.1562361 -0.03655,0.189121 -0.08422,0.890248 -0.109685,1.606605 -0.0282,0.793595 -0.07067,1.390145 -0.113342,1.588486 -0.056679,0.263386 -0.059802,0.388257 -0.01706,0.734448 0.03174,0.257982 0.04181,0.761073 0.02681,1.316693 -0.03465,1.277642 -0.2098607,2.036094 -0.7324571,3.164891 -0.379249,0.819167 -0.6611976,1.280695 -1.8463767,3.025976 -0.3445832,0.507431 -0.7861618,1.196665 -0.981078,1.530503 -0.4108263,0.703625 -0.9234338,1.419219 -0.8659318,1.474455 0.021659,0.02082 0.5260466,0.511899 0.6995036,0.73523 2.4723658,1.40993 5.250778,2.668155 8.108554,2.814329 1.826874,0.09344 4.052565,-0.681091 5.953385,-1.139845 1.240359,-0.299354 1.799619,-1.154932 2.988773,-1.702252 l 0.475284,-0.386087 0.123131,0.273429 c -0.713041,-0.909315 -0.622616,-0.92198 -1.501477,-1.386753 -0.880577,-0.465683 -1.103645,-0.774587 -1.102951,-1.529296 7.76e-4,-0.845203 0.377501,-1.968908 1.40154,-4.17959 0.481094,-1.038585 0.590255,-1.311782 0.611803,-1.540168 0.122,-1.293006 -1.058733,-2.982733 -3.859731,-5.525273 C 18.445348,11.045702 18.287188,10.888554 18.153844,10.661868 18.022419,10.438451 17.911229,10.105097 17.646852,9.1482751 17.56199,8.8411445 17.419754,8.3707662 17.331203,8.1033777 17.13242,7.5032555 17.026103,6.844994 16.849804,5.1220973 16.641685,3.0882794 16.722489,2.0622129 15.938195,1.4281123 15.59247,1.1485936 15.632926,0.82977263 15.689574,0.54870714 Z"
     sodipodi:nodetypes="cscsscccccsssccsscccssscsssccsc" /><path
     style="fill:#d08821;fill-opacity:0.0987261;stroke:#69430b;stroke-width:0.432159;stroke-dasharray:none;stroke-opacity:0.194268"
     d="m 19.708518,12.587316 c -0.196131,0.05663 -1.090196,-1.006458 -1.59181,-1.525966 -0.408918,-0.423506 -0.575904,-1.1129603 -0.658902,-1.443332 -0.179526,-0.7145978 -0.891419,0.3635281 -1.432764,0.707818 -0.698988,0.444552 -0.262258,0.659438 0.150493,1.154595 0.230134,0.276076 -0.0384,1.259056 0.13109,1.130881 1.533174,-1.159323 0.695605,1.000434 1.320911,0.771856 0.138361,-0.05058 0.727647,0.363297 0.919194,0.378338 1.057213,0.08301 0.87188,-0.362816 1.148717,-1.140407"
     id="path14-3-4"
     sodipodi:nodetypes="csssssssc" /><path
     style="fill:#d08821;fill-opacity:0.0987261;stroke:#69430b;stroke-width:0.52691;stroke-dasharray:none;stroke-opacity:0.194268"
     d="m 7.7022572,23.064107 c 0.8221094,-0.933561 2.0677986,-3.132766 2.5840818,-4.631318 0.499727,-1.450492 0.262854,-2.933179 0.255614,-3.294175 -0.01016,-0.50691 0.944484,0.579811 1.826535,0.617539 1.029267,0.04402 1.747252,1.060528 1.709752,1.497477 -0.03346,0.3899 0.808262,0.882017 0.65832,1.40271 -0.130259,0.452336 -0.884261,1.124 -0.878563,1.458101 0.0068,0.400383 0.812016,1.266368 0.595507,1.897599 -0.216894,0.632351 -1.455618,1.029774 -1.5978,1.233111 -0.117407,0.167906 0.282224,1.371982 -1.668079,1.767694 C 10.283123,25.196367 9.7699707,24.476631 9.1561812,23.788894 8.871987,23.470461 8.5197742,24.312593 8.2584799,23.542679 7.9413148,22.608139 7.9251072,23.138805 7.4618575,23.03791"
     id="path14-9"
     sodipodi:nodetypes="csssssssssssc" /><path
     style="fill:#d08821;fill-opacity:0.0987261;stroke:#69430b;stroke-width:0.408831;stroke-dasharray:none;stroke-opacity:0.194268"
     d="m 21.855194,14.673937 c 0.411798,0.977148 1.526178,1.758815 1.136998,2.987411 -0.373611,1.179447 -1.284995,2.82147 -1.147642,2.577549 0.4265,-0.757403 -0.135473,0.0014 -0.593945,0.512773 -0.53499,0.596671 -0.538208,-0.246243 -0.746976,-0.52135 -0.186294,-0.245485 -0.861204,-0.02106 -1.05762,-0.4125 -0.17063,-0.340064 -0.539355,-1.121842 -0.716094,-1.31142 -0.423959,-0.45478 -0.358464,-2.350199 -0.345915,-2.764485 0.01201,-0.396555 0.751894,-1.084016 1.410992,-1.957051 0.219594,-0.290873 0.583809,-0.41275 0.604514,-0.596249 0.0076,-0.0676 1.525622,1.713662 1.381447,1.434856"
     id="path14-9-7"
     sodipodi:nodetypes="csssssssssc" /><path
     style="opacity:0.40634;fill:url(#linearGradient17);stroke:#a4a4a4;stroke-width:0.566711;stroke-dasharray:none;stroke-opacity:0.1"
     id="path16"
     d="m 9.1958751,27.500609 c 0.1099716,-0.384031 0.1545327,-0.665835 0.3070315,-1.002021 0.1543128,-0.340175 0.1443564,-0.0865 0.2986344,-0.432431 0.351344,-0.772355 0.710988,-1.534134 1.04471,-2.330199 0.185641,-0.442826 0.24454,-0.606489 0.415297,-1.052605 0.05404,-0.161622 0.118494,-0.315556 0.162095,-0.484871 0.05148,-0.199832 0.0867,-0.408447 0.121334,-0.615462 0.08534,-0.509918 0.109818,-0.827087 0.160874,-1.341887 0.0595,-0.600814 0.05806,-0.595282 0.11313,-1.189929 0.02627,-0.211014 0.04681,-0.422984 0.07892,-0.633035 0.106329,-0.697865 0.281387,-1.417978 0.503274,-2.053077 0.05038,-0.144212 0.106872,-0.282267 0.160323,-0.423397 0.05979,-0.132229 0.118974,-0.265267 0.179328,-0.396695 0.07057,-0.153667 0.140271,-0.308678 0.213429,-0.45856 0.07996,-0.163803 0.164204,-0.320802 0.245705,-0.482172 0.125143,-0.247781 0.375971,-0.747628 0.496828,-1.007109 0.07309,-0.156971 0.142188,-0.319516 0.213283,-0.479274 0.198442,-0.474598 0.392706,-0.977343 0.47882,-1.536958 0.02825,-0.183616 0.05378,-0.494659 0.07063,-0.681215 0.03294,-0.490438 0.09317,-0.9823325 0.183017,-1.4660558 0.02015,-0.1086214 0.04448,-0.215737 0.06672,-0.3236099 0.1002,-0.480559 0.237919,-0.9402246 0.382518,-1.3919101 0.094,-0.3369861 0.0439,-0.1633082 0.15087,-0.5205948 L 14.147019,5.740443 v 0 c -0.121824,0.33806 -0.0612,0.1758928 -0.181322,0.4870963 -0.05691,0.1815782 -0.06654,0.2038643 -0.115199,0.3938284 -0.09178,0.3584642 -0.160825,0.7284996 -0.243608,1.0913747 -0.04687,0.2166841 -0.09883,0.4311759 -0.142926,0.6490227 -0.07961,0.3932633 -0.114867,0.793922 -0.131568,1.1924516 -0.02188,0.3235784 -0.0416,0.6543563 -0.0955,0.9766693 -0.07111,0.425032 -0.18947,0.829339 -0.327494,1.211992 -0.06445,0.161586 -0.125522,0.327262 -0.193341,0.484749 -0.166263,0.386094 -0.299116,0.642354 -0.489358,0.994172 -0.01005,0.0185 -0.487698,0.870752 -0.506747,0.90873 -0.06625,0.132135 -0.123294,0.277744 -0.184931,0.416615 -0.158798,0.400088 -0.20005,0.465376 -0.313915,0.903559 -0.04311,0.165877 -0.0777,0.336534 -0.113118,0.50631 -0.127098,0.608922 -0.235869,1.226402 -0.331136,1.845157 -0.06666,0.802343 -0.0375,0.397966 -0.08698,1.213101 -0.03337,0.402215 -0.08798,0.876126 -0.164429,1.273633 -0.08083,0.420524 -0.156542,0.647196 -0.271233,1.041124 -0.05722,0.173301 -0.111827,0.348991 -0.171667,0.519906 -0.3578661,1.022118 -0.7872098,1.972689 -1.2569314,2.846734 -0.329132,0.612505 -0.8055348,1.377286 -1.1705791,1.919055 z"
     sodipodi:nodetypes="cscsccccccscssscccccccccscccccccscccsccccccccc" /><path
     style="opacity:1;fill:#d08821;fill-opacity:0.0987261;stroke:#69430b;stroke-width:0.475881;stroke-dasharray:none;stroke-opacity:0.194268"
     d="m 11.207895,9.7460143 c 0.410606,0.054251 3.158348,-2.9833686 2.642863,-3.6497983 -0.496406,-0.6417642 1.000919,1.2939657 0.500413,1.937864 -0.56847,0.7313347 -0.554393,0.6163825 -1.076568,1.0765681 -0.439831,0.3876172 0.832817,0.304689 -0.304688,0.5687531 -1.137507,0.2640641 -1.218757,0.9140668 -1.70626,0.2031251"
     id="path14"
     sodipodi:nodetypes="cssssc" /><path
     style="fill:#d08821;fill-opacity:0.0987261;stroke:#69430b;stroke-width:0.401586;stroke-dasharray:none;stroke-opacity:0.194268"
     d="m 16.457047,5.9272537 c 0.196422,0.1703608 0.255408,1.2440908 0.537373,2.0268847 0.170086,0.4721912 0.305393,0.6630545 0.133815,0.8888051 C 16.750327,9.3401697 16.06577,8.891101 15.856886,8.3491901 15.619635,7.7336888 15.704915,7.7896873 15.660478,7.313361 15.623048,6.9121486 14.879728,7.6359332 15.388374,6.9090687 15.897021,6.1822031 15.658829,5.8580963 16.55254,5.8934174"
     id="path14-2"
     sodipodi:nodetypes="csssssc" /><path
     style="fill:#d08821;fill-opacity:0.0987261;stroke:#69430b;stroke-width:0.475881;stroke-dasharray:none;stroke-opacity:0.194268"
     d="m 10.233434,14.252816 c 0.215705,-0.06328 0.1069,-0.913103 0.230563,-1.698643 0.104182,-0.661787 -0.03324,-1.171601 0.06437,-1.484859 0.241367,-0.774613 1.356428,-0.322855 2.062888,-0.322855 0.912187,0 0.277342,0.618771 0.186433,1.322772 -0.05069,0.39252 0.490109,0.901133 0.546467,1.128262 0.150303,0.605731 -0.212579,1.108123 -0.928675,1.265255 -0.15845,0.03477 -0.417969,-0.656148 -0.587061,-0.52898 -0.93328,0.701885 -0.753771,0.827655 -1.487315,0.374874"
     id="path14-3"
     sodipodi:nodetypes="csssssssc" /><path
     style="fill:#d08821;fill-opacity:0.0987261;stroke:#69430b;stroke-width:0.261076;stroke-dasharray:none;stroke-opacity:0.194268"
     d="m 14.094782,4.617822 c 0.20018,-0.093074 0.300148,-1.8353124 0.456772,-2.0261029 0.286798,-0.3493626 0.544419,0.1609156 0.529416,0.2542858 -0.08485,0.5280468 -0.0932,0.4690875 -0.211887,0.8509709 -0.09997,0.321662 0.455999,-0.091841 0.0079,0.3723373 -0.44816,0.4641834 -0.318109,0.8116344 -0.721792,0.6001801"
     id="path14-5"
     sodipodi:nodetypes="cssssc" /><path
     style="fill:#d08821;fill-opacity:0.0987261;stroke:#69430b;stroke-width:0.215865;stroke-dasharray:none;stroke-opacity:0.194268"
     d="M 16.621582,4.6284542 C 16.43761,4.5510981 16.470257,3.303416 16.334977,3.1587821 c -0.247718,-0.2648437 -0.53075,0.084827 -0.523305,0.1522226 0.0421,0.3811506 -0.09842,0.2461417 -0.01333,0.5249387 0.07167,0.2348316 -0.283143,0.2965394 0.109951,0.652109 0.393093,0.3555727 0.25166,0.3025197 0.651972,0.1739292"
     id="path14-5-3"
     sodipodi:nodetypes="cssssc" /><path
     style="opacity:0.5;fill:url(#linearGradient19);stroke:#a4a4a4;stroke-width:0.449447;stroke-dasharray:none;stroke-opacity:0.1"
     id="path16-35"
     d="M 13.417347,28.581841 C 13.240615,28.1481 13.19599,27.198703 13.226264,27.065218 c 0.19572,-0.845525 0.365432,-1.549989 0.06518,-2.497989 -0.140576,-0.44388 0.304355,-0.865312 0.398632,-1.352464 0.0296,-0.176193 0.0013,-0.996802 0.02469,-1.180886 0.02764,-0.217262 0.392236,-0.88487 0.409961,-1.109232 0.04369,-0.552644 -0.282242,-0.391238 -0.25862,-0.947836 0.02752,-0.649594 0.14954,-0.385575 0.174553,-1.028355 0.01282,-0.228349 0.01913,-0.05836 0.03534,-0.285898 0.05367,-0.755942 -0.483,-1.378242 -0.361156,-2.070958 0.02767,-0.157297 0.05896,-0.308188 0.08845,-0.462281 0.03329,-0.144742 0.06623,-0.290331 0.09987,-0.434235 0.03933,-0.168247 0.07814,-0.337914 0.11902,-0.502184 0.04469,-0.179528 0.09195,-0.351887 0.137565,-0.528855 0.07004,-0.271726 0.210382,-0.81982 0.277779,-1.10399 0.04076,-0.171905 0.09829,-0.946426 0.137859,-1.121257 0.110085,-0.518895 0.154598,-1.25753 0.198137,-1.86375 0.01429,-0.198906 0.01141,-0.8230303 0.01902,-1.0246709 0.01341,-0.5296567 0.06133,-0.8996647 0.107952,-1.4242571 0.01043,-0.1178059 0.06745,-0.7973369 0.07912,-0.91441 0.0527,-0.5215785 0.141556,-0.1435353 0.22051,-0.6356928 -0.0018,-0.5877685 0.23497,-0.2852894 0.08178,-0.5666431 L 14.931855,5.3663577 v 0 c -0.06702,0.3688697 -0.03359,0.1918412 -0.09995,0.5317106 -0.03102,0.1978028 -0.03637,0.2221787 -0.06249,0.4287023 -0.04924,0.3897103 -0.08511,0.7910217 -0.129054,1.1851411 -0.02475,0.2352463 -0.0525,0.4683189 -0.07561,0.7047113 -0.04174,0.4267395 -0.05752,0.8597572 -0.06248,1.2897783 -0.0089,0.3494622 -0.01649,0.7065977 -0.04403,1.0559167 -0.03637,0.460649 7.11e-4,0.573259 -0.07519,0.990792 -0.03566,0.17655 -0.04103,0.692468 -0.07871,0.864728 -0.09237,0.422314 -0.191292,0.873181 -0.298064,1.259478 -0.0057,0.02029 -0.379222,0.77943 -0.389879,0.821074 -0.03707,0.144888 -0.0686,0.303942 -0.102895,0.45591 -0.08785,0.437106 0.05902,0.449146 -0.0021,0.92559 -0.02316,0.180361 -0.211449,0.425418 -0.230092,0.609683 -0.06685,0.660905 -0.12292,1.330331 -0.171101,2.000612 -0.02926,0.867001 0.242532,0.281149 0.223422,1.161274 -0.01463,0.434628 -0.300495,1.096363 -0.340336,1.527555 -0.04212,0.456155 0.127832,0.673908 0.06564,1.102701 -0.03131,0.188894 -0.272475,0.409617 -0.305333,0.59604 -0.196538,1.114873 -0.54558,1.323555 -0.155411,2.454054 0.275998,1.3084 -0.224901,2.473526 -0.466108,3.034683 z"
     sodipodi:nodetypes="ccsccccccscssscccccccscscccccccscccsccccccccc" /><path
     style="opacity:0.5;fill:url(#linearGradient25);stroke:#a4a4a4;stroke-width:0.449447;stroke-dasharray:none;stroke-opacity:0.1"
     id="path16-35-0"
     d="m 16.953742,28.762057 c 0.176732,-0.433741 0.258504,-1.420285 0.22823,-1.55377 -0.19572,-0.845525 -0.365432,-1.549989 -0.06518,-2.497989 0.140576,-0.44388 -0.304355,-0.865312 -0.398632,-1.352464 -0.0296,-0.176193 -0.0013,-0.996802 -0.02469,-1.180886 -0.02764,-0.217262 -0.392236,-0.88487 -0.409961,-1.109232 -0.04369,-0.552644 0.282242,-0.391238 0.25862,-0.947836 -0.02752,-0.649594 -0.14954,-0.385575 -0.174553,-1.028355 -0.01282,-0.228349 -0.01913,-0.05836 -0.03534,-0.285898 -0.05367,-0.755942 0.483,-1.378242 0.361156,-2.070958 -0.02767,-0.157297 -0.05896,-0.308188 -0.08845,-0.462281 -0.03329,-0.144742 -0.06623,-0.290331 -0.09987,-0.434235 -0.03933,-0.168247 -0.07814,-0.337914 -0.11902,-0.502184 -0.04469,-0.179528 -0.09195,-0.351887 -0.137565,-0.528855 -0.07004,-0.271726 -0.210382,-0.81982 -0.277779,-1.10399 -0.04076,-0.171905 -0.09829,-0.946426 -0.137859,-1.121257 -0.110085,-0.518895 -0.154598,-1.25753 -0.198137,-1.86375 -0.01429,-0.198906 -0.01141,-0.8230298 -0.01902,-1.0246708 -0.01341,-0.529656 -0.06133,-0.899664 -0.107952,-1.4242577 -0.01043,-0.117806 -0.06745,-0.797337 -0.07912,-0.91441 -0.0527,-0.521578 -0.141556,-0.143535 -0.22051,-0.635692 0.0018,-0.587769 -0.23497,-0.28529 -0.08178,-0.566643 l 0.350051,-0.643017 v 0 c 0.06702,0.36887 0.03359,0.191842 0.09995,0.531711 0.03102,0.197803 0.03637,0.222179 0.06249,0.428702 0.04924,0.38971 0.08511,0.791022 0.129054,1.185141 0.02475,0.235246 0.0525,0.468319 0.07561,0.704711 0.04174,0.4267407 0.05752,0.8597577 0.06248,1.2897797 0.0089,0.349462 0.01649,0.7065968 0.04403,1.0559158 0.03637,0.460649 -7.11e-4,0.573259 0.07519,0.990792 0.03566,0.17655 0.04103,0.692468 0.07871,0.864728 0.09237,0.422314 0.191292,0.873181 0.298064,1.259478 0.0057,0.02029 0.379222,0.77943 0.389879,0.821074 0.03707,0.144888 0.0686,0.303942 0.102895,0.45591 0.08785,0.437106 -0.05902,0.449146 0.0021,0.92559 0.02316,0.180361 0.211449,0.425418 0.230092,0.609683 0.06685,0.660905 0.12292,1.330331 0.171101,2.000612 0.02926,0.867001 -0.242532,0.281149 -0.223422,1.161274 0.01463,0.434628 0.300495,1.096363 0.340336,1.527555 0.04212,0.456155 -0.127832,0.673908 -0.06564,1.102701 0.03131,0.188894 0.272475,0.409617 0.305333,0.59604 0.196538,1.114873 0.54558,1.323555 0.155411,2.454054 -0.275998,1.3084 0.206327,2.19492 0.447534,2.756077 z"
     sodipodi:nodetypes="ccsccccccscssscccccccscscccccccscccsccccccccc" /><path
     style="opacity:0.5;fill:url(#linearGradient26);stroke:#a4a4a4;stroke-width:0.316418;stroke-dasharray:none;stroke-opacity:0.1"
     id="path16-35-0-3"
     d="m 14.692835,29.292329 c 0.116904,-0.398156 0.221537,-1.343352 0.214876,-1.476354 -0.04419,-0.842958 -0.329541,-1.582368 -0.117354,-2.463225 0.09934,-0.412443 0.147558,-0.839289 0.131408,-1.322676 -0.0035,-0.174276 -0.09686,-0.530241 -0.0968,-0.711389 5.3e-5,-0.213801 0.01968,-1.340521 0.02519,-1.559971 0.01355,-0.54055 0.09186,-0.634058 0.115768,-1.175954 0.02792,-0.632431 0.02493,-0.101752 0.05367,-0.727274 0.0082,-0.222705 -0.0059,-0.05887 6.1e-4,-0.281216 0.02159,-0.738647 -0.01485,-1.274878 -0.03167,-1.960729 -0.0038,-0.155739 0.02097,-0.577698 0.115035,-0.57644 -0.0075,-0.144275 -0.02412,-0.39812 -0.0318,-0.541627 -0.009,-0.167785 0.208703,-0.110232 0.198681,-0.274356 -0.01096,-0.17937 -0.02368,-0.352116 -0.03527,-0.529122 -0.0178,-0.271785 -0.05323,-0.819881 -0.0689,-1.103387 -0.0095,-0.171504 0.01136,-0.928617 0.0027,-1.102806 -0.02207,-0.516079 0.003,-1.236834 0.02008,-1.829244 0.0056,-0.194376 0.04718,-0.798383 0.05633,-0.994581 0.02731,-0.514545 0.02697,-0.8787646 0.03724,-1.3925144 0.0023,-0.1153659 0.01732,-0.7804337 0.01897,-0.8952431 0.007,-0.5115815 -0.06206,-0.1564956 -0.07017,-0.642834 0.03872,-0.5689374 -0.09999,-0.3053143 -0.0047,-0.5588158 l 0.217653,-0.5793711 v 0 c 0.01006,0.3654791 0.0045,0.1899219 0.01614,0.5272367 0.0028,0.1953763 0.004,0.2196421 0.0039,0.4228565 -2.65e-4,0.3834606 -0.008,0.7765024 -0.01122,1.1635775 -0.0027,0.2308587 -0.0036,0.4599839 -0.0072,0.6917494 -0.0064,0.4183913 -0.02633,0.8396513 -0.05149,1.2566703 -0.01799,0.339499 -0.03714,0.686265 -0.04574,1.027929 -0.01131,0.450564 -0.03722,0.555023 -0.02585,0.968722 0.0066,0.175369 -0.02387,0.675617 -0.01597,0.847084 0.01936,0.420365 0.04018,0.869191 0.06911,1.25646 0.0016,0.02036 0.140858,0.801648 0.143547,0.843292 0.0094,0.144883 0.015,0.302802 0.02251,0.454199 0.01613,0.434131 -0.05861,0.427628 -0.05848,0.896544 6.5e-5,0.177516 0.07913,0.438097 0.07667,0.618834 -0.0089,0.648247 -0.02365,1.303414 -0.04251,1.95843 -0.04102,0.84317 -0.140229,0.242257 -0.18721,1.096879 0.158593,0.422677 0.08082,1.098811 0.07316,1.521277 -0.0081,0.446923 0.118605,0.727424 0.122348,1.150332 0.0035,0.186784 -0.115445,0.339683 -0.110886,0.524267 0.02728,1.10388 0.406541,1.36725 0.137331,2.413708 -0.223152,1.232845 -0.254152,2.132809 -0.168764,2.706028 z"
     sodipodi:nodetypes="ccsccccccscssscccccccscscccccccscccsccccccccc" /><path
     style="opacity:0.449568;fill:url(#linearGradient18);stroke:#a4a4a4;stroke-width:0.543937;stroke-dasharray:none;stroke-opacity:0.1"
     id="path16-3"
     d="m 21.329908,26.931162 c 0.09827,-0.948843 -1.168711,-0.544464 -1.239878,-0.704012 -0.337226,-0.741318 0.0373,-1.277559 -0.283011,-2.041633 -0.178179,-0.42503 -0.504604,-0.552128 -0.668501,-0.980316 -0.05187,-0.155128 -0.263675,-0.452816 -0.305523,-0.615327 -0.04941,-0.191803 0.111707,-0.556969 0.07847,-0.755664 -0.08192,-0.489426 -0.105402,-0.793849 -0.15441,-1.287962 -0.05712,-0.576668 -0.05572,-0.571359 -0.108584,-1.142108 -0.02522,-0.202536 0.835023,-0.944465 0.804203,-1.146076 C 19.350626,17.588244 19.352231,17.345585 19.13926,16.736009 19.0909,16.597593 19.036684,16.465086 18.985379,16.329626 18.928002,16.202711 18.871187,16.07502 18.813258,15.948874 18.745519,15.801382 18.678624,15.6526 18.608406,15.508742 18.53166,15.351522 18.4508,15.200831 18.372574,15.045947 18.252461,14.808124 17.5319,14.298374 17.415897,14.049321 17.34574,13.898659 17.279422,13.742645 17.211184,13.589308 17.020717,13.133782 16.83426,12.65124 16.751606,12.114114 c -0.02711,-0.176237 -0.05161,-0.474779 -0.06779,-0.653839 -0.03161,-0.470728 -1.154009,-0.732937 -1.240245,-1.197221 -0.01934,-0.104252 -0.04268,-0.207068 -0.06403,-0.310605 C 15.283359,9.4912017 15.151178,9.0500093 15.012391,8.6164757 14.922166,8.293032 14.970256,8.45973 14.867584,8.1168015 l 1.051594,-1.3985432 v 0 c 0.116929,0.3244747 0.05874,0.1688241 0.174036,0.4675224 0.05463,0.1742801 0.06387,0.1956714 0.110577,0.3780013 0.08809,0.3440588 0.154361,0.6992233 0.233816,1.0475157 0.04499,0.2079773 0.09486,0.4138477 0.137184,0.6229416 0.0764,0.3774589 0.110251,0.7620172 0.126279,1.1445297 0.021,0.310575 1.104507,0.418142 1.156247,0.727502 0.06826,0.407951 0.181857,0.796011 0.314334,1.163286 0.06185,0.155094 0.120477,0.314111 0.18557,0.465269 0.159582,0.370579 0.287097,0.61654 0.469695,0.954219 0.0097,0.01777 0.947909,0.865748 0.966187,0.902201 0.06359,0.126825 0.118339,0.266583 0.1775,0.399873 0.152415,0.384009 0.192009,0.446673 0.3013,0.867247 0.04137,0.159213 0.07458,0.32301 0.108574,0.485963 0.12199,0.584453 0.174956,1.306481 0.266396,1.900371 0.06398,0.7701 -0.555013,0.303171 -0.507533,1.085549 -0.283177,0.359786 -0.322692,0.880319 -0.24932,1.261851 0.07758,0.403623 0.150253,0.621187 0.260334,0.999286 0.05493,0.166336 0.107347,0.334966 0.164769,0.499012 0.343484,0.981042 0.260767,1.983377 0.711612,2.822298 -0.148912,0.797809 1.217059,0.641273 1.567434,1.161271 z"
     sodipodi:nodetypes="ccsccccccscssscccccccccscccccccscccsccccccccc" /><path
     style="opacity:0.25;fill:none;fill-opacity:0.305733;stroke:url(#linearGradient28);stroke-width:1.04615;stroke-dasharray:none;stroke-opacity:0.805733"
     d="m 15.283008,1.168826 c 0,0 -0.40494,2.219448 -1.127173,6.0550419 -0.110321,0.5858868 -3.036897,3.3993781 -3.080985,3.8695501 -0.221046,2.35728 -0.211715,1.674402 -0.314824,3.529494 -0.06237,1.122136 0.326407,3.340127 -0.9005533,5.500922 -2.5719535,4.529457 -1.1204776,1.538894 -3.60144,5.69818"
     id="path27"
     sodipodi:nodetypes="cssssc" /><path
     style="opacity:0.25;fill:none;fill-opacity:1;stroke:url(#linearGradient31);stroke-width:1.04615;stroke-dasharray:none"
     d="m 15.047375,1.5270073 c 0.676896,1.088157 0.705029,0.512918 0.831859,2.182688 0.06526,0.966984 0.134925,1.31742 0.198422,2.019641 0.03215,0.3556 0.171289,1.489444 0.258422,1.829985 0.264003,1.031805 0.563604,2.005364 0.856443,2.6130527 0.268799,0.557801 0.09342,0.82289 0.587802,1.245586 0.24883,0.212749 0.586097,0.514377 0.966799,0.870801 0.205291,0.1922 0.423212,0.400333 0.646707,0.619057 1.138327,1.114027 2.421251,2.502779 2.916428,3.460159 0.749325,1.448753 -0.495665,2.670113 -0.86714,3.89598 -0.371475,1.225868 -1.138051,2.756062 -0.692281,3.907634 0.44577,1.151572 2.358319,1.863748 2.358319,1.863748"
     id="path28"
     sodipodi:nodetypes="ccsssssssssc" /><ellipse
     style="display:inline;fill:none;fill-opacity:1;stroke:#d08821;stroke-width:0.944613;stroke-dasharray:none;stroke-opacity:1"
     id="path1-7-2"
     cx="14.769232"
     cy="14.769231"
     rx="14.296926"
     ry="14.296925" /><ellipse
     style="display:none;fill:none;fill-opacity:1;stroke:#ff9600;stroke-width:0.944613;stroke-dasharray:none;stroke-opacity:1;filter:url(#filter1)"
     id="path1-7-2-6"
     cx="14.769232"
     cy="14.769231"
     rx="14.296926"
     ry="14.296925" /></svg>
